<svg xmlns="http://www.w3.org/2000/svg" xmlns:xlink="http://www.w3.org/1999/xlink" width="1000" zoomAndPan="magnify" viewBox="0 0 750 30.000001" height="40" preserveAspectRatio="xMidYMid meet" version="1.0"><defs><g/></defs><g fill="#ffde59" fill-opacity="1"><g transform="translate(25.07247, 21.58979)"><g><path d="M 11.625 -14.96875 L 7.203125 -14.96875 L 7.203125 0 L 5.09375 0 L 5.09375 -14.96875 L 0.6875 -14.96875 L 0.6875 -16.796875 L 11.625 -16.796875 Z M 11.625 -14.96875 "/></g></g></g><g fill="#ffde59" fill-opacity="1"><g transform="translate(42.605635, 21.58979)"><g><path d="M 12.796875 0 L 10.6875 0 L 10.6875 -7.765625 L 3.921875 -7.765625 L 3.921875 0 L 1.8125 0 L 1.8125 -16.796875 L 3.921875 -16.796875 L 3.921875 -9.578125 L 10.6875 -9.578125 L 10.6875 -16.796875 L 12.796875 -16.796875 Z M 12.796875 0 "/></g></g></g><g fill="#ffde59" fill-opacity="1"><g transform="translate(62.490716, 21.58979)"><g><path d="M 9.859375 -7.765625 L 3.921875 -7.765625 L 3.921875 -1.8125 L 10.84375 -1.8125 L 10.84375 0 L 1.8125 0 L 1.8125 -16.796875 L 10.734375 -16.796875 L 10.734375 -14.96875 L 3.921875 -14.96875 L 3.921875 -9.578125 L 9.859375 -9.578125 Z M 9.859375 -7.765625 "/></g></g></g><g fill="#ffde59" fill-opacity="1"><g transform="translate(79.458959, 21.58979)"><g/></g></g><g fill="#ffde59" fill-opacity="1"><g transform="translate(90.109312, 21.58979)"><g><path d="M 9.59375 -7.421875 L 3.921875 -7.421875 L 3.921875 0 L 1.8125 0 L 1.8125 -16.796875 L 10.5625 -16.796875 L 10.5625 -14.96875 L 3.921875 -14.96875 L 3.921875 -9.234375 L 9.59375 -9.234375 Z M 9.59375 -7.421875 "/></g></g></g><g fill="#ffde59" fill-opacity="1"><g transform="translate(106.6971, 21.58979)"><g><path d="M 6.890625 -6.796875 L 3.9375 -6.796875 L 3.9375 0 L 1.8125 0 L 1.8125 -16.796875 L 6.515625 -16.796875 C 8.160156 -16.796875 9.40625 -16.363281 10.25 -15.5 C 11.101562 -14.644531 11.53125 -13.394531 11.53125 -11.75 C 11.53125 -10.707031 11.300781 -9.800781 10.84375 -9.03125 C 10.382812 -8.257812 9.734375 -7.675781 8.890625 -7.28125 L 12.140625 -0.140625 L 12.140625 0 L 9.875 0 Z M 3.9375 -8.609375 L 6.5 -8.609375 C 7.382812 -8.609375 8.085938 -8.890625 8.609375 -9.453125 C 9.140625 -10.023438 9.40625 -10.789062 9.40625 -11.75 C 9.40625 -13.894531 8.425781 -14.96875 6.46875 -14.96875 L 3.9375 -14.96875 Z M 3.9375 -8.609375 "/></g></g></g><g fill="#ffde59" fill-opacity="1"><g transform="translate(124.47237, 21.58979)"><g><path d="M 9.859375 -7.765625 L 3.921875 -7.765625 L 3.921875 -1.8125 L 10.84375 -1.8125 L 10.84375 0 L 1.8125 0 L 1.8125 -16.796875 L 10.734375 -16.796875 L 10.734375 -14.96875 L 3.921875 -14.96875 L 3.921875 -9.578125 L 9.859375 -9.578125 Z M 9.859375 -7.765625 "/></g></g></g><g fill="#ffde59" fill-opacity="1"><g transform="translate(141.44061, 21.58979)"><g><path d="M 9.140625 -4.25 C 9.140625 -5.082031 8.910156 -5.722656 8.453125 -6.171875 C 8.003906 -6.617188 7.1875 -7.050781 6 -7.46875 C 4.820312 -7.894531 3.921875 -8.335938 3.296875 -8.796875 C 2.671875 -9.265625 2.203125 -9.796875 1.890625 -10.390625 C 1.578125 -10.992188 1.421875 -11.679688 1.421875 -12.453125 C 1.421875 -13.773438 1.863281 -14.867188 2.75 -15.734375 C 3.632812 -16.597656 4.796875 -17.03125 6.234375 -17.03125 C 7.222656 -17.03125 8.101562 -16.804688 8.875 -16.359375 C 9.644531 -15.921875 10.234375 -15.304688 10.640625 -14.515625 C 11.054688 -13.734375 11.265625 -12.875 11.265625 -11.9375 L 9.140625 -11.9375 C 9.140625 -12.976562 8.890625 -13.78125 8.390625 -14.34375 C 7.890625 -14.914062 7.171875 -15.203125 6.234375 -15.203125 C 5.378906 -15.203125 4.71875 -14.960938 4.25 -14.484375 C 3.78125 -14.015625 3.546875 -13.347656 3.546875 -12.484375 C 3.546875 -11.773438 3.800781 -11.179688 4.3125 -10.703125 C 4.820312 -10.222656 5.609375 -9.796875 6.671875 -9.421875 C 8.316406 -8.878906 9.492188 -8.207031 10.203125 -7.40625 C 10.921875 -6.601562 11.28125 -5.554688 11.28125 -4.265625 C 11.28125 -2.898438 10.835938 -1.804688 9.953125 -0.984375 C 9.066406 -0.171875 7.863281 0.234375 6.34375 0.234375 C 5.363281 0.234375 4.460938 0.0195312 3.640625 -0.40625 C 2.816406 -0.832031 2.164062 -1.429688 1.6875 -2.203125 C 1.21875 -2.984375 0.984375 -3.875 0.984375 -4.875 L 3.109375 -4.875 C 3.109375 -3.832031 3.394531 -3.019531 3.96875 -2.4375 C 4.550781 -1.863281 5.34375 -1.578125 6.34375 -1.578125 C 7.269531 -1.578125 7.96875 -1.816406 8.4375 -2.296875 C 8.90625 -2.773438 9.140625 -3.425781 9.140625 -4.25 Z M 9.140625 -4.25 "/></g></g></g><g fill="#ffde59" fill-opacity="1"><g transform="translate(158.916126, 21.58979)"><g><path d="M 12.796875 0 L 10.6875 0 L 10.6875 -7.765625 L 3.921875 -7.765625 L 3.921875 0 L 1.8125 0 L 1.8125 -16.796875 L 3.921875 -16.796875 L 3.921875 -9.578125 L 10.6875 -9.578125 L 10.6875 -16.796875 L 12.796875 -16.796875 Z M 12.796875 0 "/></g></g></g><g fill="#ffde59" fill-opacity="1"><g transform="translate(178.801202, 21.58979)"><g><path d="M 9.859375 -7.765625 L 3.921875 -7.765625 L 3.921875 -1.8125 L 10.84375 -1.8125 L 10.84375 0 L 1.8125 0 L 1.8125 -16.796875 L 10.734375 -16.796875 L 10.734375 -14.96875 L 3.921875 -14.96875 L 3.921875 -9.578125 L 9.859375 -9.578125 Z M 9.859375 -7.765625 "/></g></g></g><g fill="#ffde59" fill-opacity="1"><g transform="translate(195.769442, 21.58979)"><g><path d="M 9.140625 -4.25 C 9.140625 -5.082031 8.910156 -5.722656 8.453125 -6.171875 C 8.003906 -6.617188 7.1875 -7.050781 6 -7.46875 C 4.820312 -7.894531 3.921875 -8.335938 3.296875 -8.796875 C 2.671875 -9.265625 2.203125 -9.796875 1.890625 -10.390625 C 1.578125 -10.992188 1.421875 -11.679688 1.421875 -12.453125 C 1.421875 -13.773438 1.863281 -14.867188 2.75 -15.734375 C 3.632812 -16.597656 4.796875 -17.03125 6.234375 -17.03125 C 7.222656 -17.03125 8.101562 -16.804688 8.875 -16.359375 C 9.644531 -15.921875 10.234375 -15.304688 10.640625 -14.515625 C 11.054688 -13.734375 11.265625 -12.875 11.265625 -11.9375 L 9.140625 -11.9375 C 9.140625 -12.976562 8.890625 -13.78125 8.390625 -14.34375 C 7.890625 -14.914062 7.171875 -15.203125 6.234375 -15.203125 C 5.378906 -15.203125 4.71875 -14.960938 4.25 -14.484375 C 3.78125 -14.015625 3.546875 -13.347656 3.546875 -12.484375 C 3.546875 -11.773438 3.800781 -11.179688 4.3125 -10.703125 C 4.820312 -10.222656 5.609375 -9.796875 6.671875 -9.421875 C 8.316406 -8.878906 9.492188 -8.207031 10.203125 -7.40625 C 10.921875 -6.601562 11.28125 -5.554688 11.28125 -4.265625 C 11.28125 -2.898438 10.835938 -1.804688 9.953125 -0.984375 C 9.066406 -0.171875 7.863281 0.234375 6.34375 0.234375 C 5.363281 0.234375 4.460938 0.0195312 3.640625 -0.40625 C 2.816406 -0.832031 2.164062 -1.429688 1.6875 -2.203125 C 1.21875 -2.984375 0.984375 -3.875 0.984375 -4.875 L 3.109375 -4.875 C 3.109375 -3.832031 3.394531 -3.019531 3.96875 -2.4375 C 4.550781 -1.863281 5.34375 -1.578125 6.34375 -1.578125 C 7.269531 -1.578125 7.96875 -1.816406 8.4375 -2.296875 C 8.90625 -2.773438 9.140625 -3.425781 9.140625 -4.25 Z M 9.140625 -4.25 "/></g></g></g><g fill="#ffde59" fill-opacity="1"><g transform="translate(213.244969, 21.58979)"><g><path d="M 11.625 -14.96875 L 7.203125 -14.96875 L 7.203125 0 L 5.09375 0 L 5.09375 -14.96875 L 0.6875 -14.96875 L 0.6875 -16.796875 L 11.625 -16.796875 Z M 11.625 -14.96875 "/></g></g></g><g fill="#ffde59" fill-opacity="1"><g transform="translate(230.77813, 21.58979)"><g/></g></g><g fill="#ffde59" fill-opacity="1"><g transform="translate(241.428489, 21.58979)"><g><path d="M 6.1875 -8.359375 L 9.625 -16.796875 L 12.015625 -16.796875 L 7.234375 -6.265625 L 7.234375 0 L 5.125 0 L 5.125 -6.265625 L 0.34375 -16.796875 L 2.75 -16.796875 Z M 6.1875 -8.359375 "/></g></g></g><g fill="#ffde59" fill-opacity="1"><g transform="translate(259.053882, 21.58979)"><g><path d="M 12.734375 -6.921875 C 12.734375 -4.628906 12.242188 -2.863281 11.265625 -1.625 C 10.296875 -0.382812 8.910156 0.234375 7.109375 0.234375 C 5.378906 0.234375 4.007812 -0.363281 3 -1.5625 C 2 -2.769531 1.476562 -4.472656 1.4375 -6.671875 L 1.4375 -9.84375 C 1.4375 -12.082031 1.929688 -13.835938 2.921875 -15.109375 C 3.921875 -16.390625 5.304688 -17.03125 7.078125 -17.03125 C 8.847656 -17.03125 10.226562 -16.421875 11.21875 -15.203125 C 12.207031 -13.984375 12.710938 -12.242188 12.734375 -9.984375 Z M 10.625 -9.859375 C 10.625 -11.640625 10.332031 -12.960938 9.75 -13.828125 C 9.164062 -14.691406 8.273438 -15.125 7.078125 -15.125 C 5.921875 -15.125 5.039062 -14.6875 4.4375 -13.8125 C 3.84375 -12.9375 3.546875 -11.644531 3.546875 -9.9375 L 3.546875 -6.921875 C 3.546875 -5.203125 3.84375 -3.894531 4.4375 -3 C 5.03125 -2.101562 5.914062 -1.65625 7.09375 -1.65625 C 8.28125 -1.65625 9.160156 -2.066406 9.734375 -2.890625 C 10.304688 -3.722656 10.601562 -5 10.625 -6.71875 Z M 10.625 -9.859375 "/></g></g></g><g fill="#ffde59" fill-opacity="1"><g transform="translate(278.477798, 21.58979)"><g><path d="M 11.828125 -16.796875 L 11.828125 -4.859375 C 11.804688 -3.265625 11.34375 -2.015625 10.4375 -1.109375 C 9.53125 -0.210938 8.265625 0.234375 6.640625 0.234375 C 4.984375 0.234375 3.710938 -0.203125 2.828125 -1.078125 C 1.953125 -1.960938 1.507812 -3.222656 1.5 -4.859375 L 1.5 -16.796875 L 3.59375 -16.796875 L 3.59375 -4.9375 C 3.59375 -3.800781 3.832031 -2.953125 4.3125 -2.390625 C 4.800781 -1.835938 5.578125 -1.5625 6.640625 -1.5625 C 7.722656 -1.5625 8.503906 -1.835938 8.984375 -2.390625 C 9.460938 -2.953125 9.703125 -3.800781 9.703125 -4.9375 L 9.703125 -16.796875 Z M 11.828125 -16.796875 "/></g></g></g><g fill="#ffde59" fill-opacity="1"><g transform="translate(296.979395, 21.58979)"><g/></g></g><g fill="#ffde59" fill-opacity="1"><g transform="translate(307.629754, 21.58979)"><g><path d="M 12.34375 -5.328125 C 12.25 -3.523438 11.742188 -2.144531 10.828125 -1.1875 C 9.910156 -0.238281 8.613281 0.234375 6.9375 0.234375 C 5.25 0.234375 3.910156 -0.40625 2.921875 -1.6875 C 1.929688 -2.96875 1.4375 -4.703125 1.4375 -6.890625 L 1.4375 -9.9375 C 1.4375 -12.125 1.941406 -13.851562 2.953125 -15.125 C 3.972656 -16.394531 5.363281 -17.03125 7.125 -17.03125 C 8.75 -17.03125 10.003906 -16.539062 10.890625 -15.5625 C 11.785156 -14.59375 12.269531 -13.203125 12.34375 -11.390625 L 10.203125 -11.390625 C 10.117188 -12.765625 9.832031 -13.742188 9.34375 -14.328125 C 8.851562 -14.910156 8.113281 -15.203125 7.125 -15.203125 C 5.976562 -15.203125 5.097656 -14.753906 4.484375 -13.859375 C 3.867188 -12.960938 3.5625 -11.648438 3.5625 -9.921875 L 3.5625 -6.84375 C 3.5625 -5.144531 3.847656 -3.835938 4.421875 -2.921875 C 4.992188 -2.015625 5.828125 -1.5625 6.921875 -1.5625 C 8.023438 -1.5625 8.816406 -1.832031 9.296875 -2.375 C 9.785156 -2.925781 10.085938 -3.910156 10.203125 -5.328125 Z M 12.34375 -5.328125 "/></g></g></g><g fill="#ffde59" fill-opacity="1"><g transform="translate(326.258181, 21.58979)"><g><path d="M 9.640625 -4.390625 L 3.96875 -4.390625 L 2.671875 0 L 0.5 0 L 5.90625 -16.796875 L 7.71875 -16.796875 L 13.140625 0 L 10.96875 0 Z M 4.515625 -6.203125 L 9.109375 -6.203125 L 6.8125 -13.84375 Z M 4.515625 -6.203125 "/></g></g></g><g fill="#ffde59" fill-opacity="1"><g transform="translate(345.105648, 21.58979)"><g><path d="M 12.78125 0 L 10.65625 0 L 3.9375 -12.9375 L 3.9375 0 L 1.8125 0 L 1.8125 -16.796875 L 3.9375 -16.796875 L 10.6875 -3.796875 L 10.6875 -16.796875 L 12.78125 -16.796875 Z M 12.78125 0 "/></g></g></g><g fill="#ffde59" fill-opacity="1"><g transform="translate(364.967666, 21.58979)"><g/></g></g><g fill="#ffde59" fill-opacity="1"><g transform="translate(375.618025, 21.58979)"><g><path d="M 12.3125 -2.09375 L 11.953125 -1.625 C 10.890625 -0.382812 9.335938 0.234375 7.296875 0.234375 C 5.472656 0.234375 4.046875 -0.363281 3.015625 -1.5625 C 1.984375 -2.769531 1.457031 -4.472656 1.4375 -6.671875 L 1.4375 -9.984375 C 1.4375 -12.335938 1.90625 -14.097656 2.84375 -15.265625 C 3.78125 -16.441406 5.191406 -17.03125 7.078125 -17.03125 C 8.671875 -17.03125 9.921875 -16.582031 10.828125 -15.6875 C 11.734375 -14.789062 12.226562 -13.519531 12.3125 -11.875 L 10.203125 -11.875 C 10.117188 -12.914062 9.828125 -13.726562 9.328125 -14.3125 C 8.835938 -14.90625 8.085938 -15.203125 7.078125 -15.203125 C 5.867188 -15.203125 4.984375 -14.804688 4.421875 -14.015625 C 3.867188 -13.234375 3.578125 -11.976562 3.546875 -10.25 L 3.546875 -6.8125 C 3.546875 -5.125 3.867188 -3.828125 4.515625 -2.921875 C 5.160156 -2.015625 6.085938 -1.5625 7.296875 -1.5625 C 8.441406 -1.5625 9.304688 -1.84375 9.890625 -2.40625 L 10.203125 -2.6875 L 10.203125 -6.5625 L 7.140625 -6.5625 L 7.140625 -8.359375 L 12.3125 -8.359375 Z M 12.3125 -2.09375 "/></g></g></g><g fill="#ffde59" fill-opacity="1"><g transform="translate(394.811362, 21.58979)"><g><path d="M 9.859375 -7.765625 L 3.921875 -7.765625 L 3.921875 -1.8125 L 10.84375 -1.8125 L 10.84375 0 L 1.8125 0 L 1.8125 -16.796875 L 10.734375 -16.796875 L 10.734375 -14.96875 L 3.921875 -14.96875 L 3.921875 -9.578125 L 9.859375 -9.578125 Z M 9.859375 -7.765625 "/></g></g></g><g fill="#ffde59" fill-opacity="1"><g transform="translate(411.779613, 21.58979)"><g><path d="M 11.625 -14.96875 L 7.203125 -14.96875 L 7.203125 0 L 5.09375 0 L 5.09375 -14.96875 L 0.6875 -14.96875 L 0.6875 -16.796875 L 11.625 -16.796875 Z M 11.625 -14.96875 "/></g></g></g><g fill="#ffde59" fill-opacity="1"><g transform="translate(429.312773, 21.58979)"><g/></g></g><g fill="#ffde59" fill-opacity="1"><g transform="translate(439.963132, 21.58979)"><g><path d="M 9.640625 -4.390625 L 3.96875 -4.390625 L 2.671875 0 L 0.5 0 L 5.90625 -16.796875 L 7.71875 -16.796875 L 13.140625 0 L 10.96875 0 Z M 4.515625 -6.203125 L 9.109375 -6.203125 L 6.8125 -13.84375 Z M 4.515625 -6.203125 "/></g></g></g><g fill="#ffde59" fill-opacity="1"><g transform="translate(458.810621, 21.58979)"><g><path d="M 11.625 -14.96875 L 7.203125 -14.96875 L 7.203125 0 L 5.09375 0 L 5.09375 -14.96875 L 0.6875 -14.96875 L 0.6875 -16.796875 L 11.625 -16.796875 Z M 11.625 -14.96875 "/></g></g></g><g fill="#ffde59" fill-opacity="1"><g transform="translate(476.343781, 21.58979)"><g/></g></g><g fill="#ffde59" fill-opacity="1"><g transform="translate(486.99414, 21.58979)"><g><path d="M 6.1875 -8.359375 L 9.625 -16.796875 L 12.015625 -16.796875 L 7.234375 -6.265625 L 7.234375 0 L 5.125 0 L 5.125 -6.265625 L 0.34375 -16.796875 L 2.75 -16.796875 Z M 6.1875 -8.359375 "/></g></g></g><g fill="#ffde59" fill-opacity="1"><g transform="translate(504.619533, 21.58979)"><g><path d="M 12.734375 -6.921875 C 12.734375 -4.628906 12.242188 -2.863281 11.265625 -1.625 C 10.296875 -0.382812 8.910156 0.234375 7.109375 0.234375 C 5.378906 0.234375 4.007812 -0.363281 3 -1.5625 C 2 -2.769531 1.476562 -4.472656 1.4375 -6.671875 L 1.4375 -9.84375 C 1.4375 -12.082031 1.929688 -13.835938 2.921875 -15.109375 C 3.921875 -16.390625 5.304688 -17.03125 7.078125 -17.03125 C 8.847656 -17.03125 10.226562 -16.421875 11.21875 -15.203125 C 12.207031 -13.984375 12.710938 -12.242188 12.734375 -9.984375 Z M 10.625 -9.859375 C 10.625 -11.640625 10.332031 -12.960938 9.75 -13.828125 C 9.164062 -14.691406 8.273438 -15.125 7.078125 -15.125 C 5.921875 -15.125 5.039062 -14.6875 4.4375 -13.8125 C 3.84375 -12.9375 3.546875 -11.644531 3.546875 -9.9375 L 3.546875 -6.921875 C 3.546875 -5.203125 3.84375 -3.894531 4.4375 -3 C 5.03125 -2.101562 5.914062 -1.65625 7.09375 -1.65625 C 8.28125 -1.65625 9.160156 -2.066406 9.734375 -2.890625 C 10.304688 -3.722656 10.601562 -5 10.625 -6.71875 Z M 10.625 -9.859375 "/></g></g></g><g fill="#ffde59" fill-opacity="1"><g transform="translate(524.04345, 21.58979)"><g><path d="M 11.828125 -16.796875 L 11.828125 -4.859375 C 11.804688 -3.265625 11.34375 -2.015625 10.4375 -1.109375 C 9.53125 -0.210938 8.265625 0.234375 6.640625 0.234375 C 4.984375 0.234375 3.710938 -0.203125 2.828125 -1.078125 C 1.953125 -1.960938 1.507812 -3.222656 1.5 -4.859375 L 1.5 -16.796875 L 3.59375 -16.796875 L 3.59375 -4.9375 C 3.59375 -3.800781 3.832031 -2.953125 4.3125 -2.390625 C 4.800781 -1.835938 5.578125 -1.5625 6.640625 -1.5625 C 7.722656 -1.5625 8.503906 -1.835938 8.984375 -2.390625 C 9.460938 -2.953125 9.703125 -3.800781 9.703125 -4.9375 L 9.703125 -16.796875 Z M 11.828125 -16.796875 "/></g></g></g><g fill="#ffde59" fill-opacity="1"><g transform="translate(542.545046, 21.58979)"><g><path d="M 6.890625 -6.796875 L 3.9375 -6.796875 L 3.9375 0 L 1.8125 0 L 1.8125 -16.796875 L 6.515625 -16.796875 C 8.160156 -16.796875 9.40625 -16.363281 10.25 -15.5 C 11.101562 -14.644531 11.53125 -13.394531 11.53125 -11.75 C 11.53125 -10.707031 11.300781 -9.800781 10.84375 -9.03125 C 10.382812 -8.257812 9.734375 -7.675781 8.890625 -7.28125 L 12.140625 -0.140625 L 12.140625 0 L 9.875 0 Z M 3.9375 -8.609375 L 6.5 -8.609375 C 7.382812 -8.609375 8.085938 -8.890625 8.609375 -9.453125 C 9.140625 -10.023438 9.40625 -10.789062 9.40625 -11.75 C 9.40625 -13.894531 8.425781 -14.96875 6.46875 -14.96875 L 3.9375 -14.96875 Z M 3.9375 -8.609375 "/></g></g></g><g fill="#ffde59" fill-opacity="1"><g transform="translate(560.320305, 21.58979)"><g/></g></g><g fill="#ffde59" fill-opacity="1"><g transform="translate(570.970664, 21.58979)"><g><path d="M 1.8125 0 L 1.8125 -16.796875 L 5.8125 -16.796875 C 7.769531 -16.796875 9.289062 -16.179688 10.375 -14.953125 C 11.46875 -13.722656 12.015625 -12 12.015625 -9.78125 L 12.015625 -6.96875 C 12.015625 -4.75 11.460938 -3.03125 10.359375 -1.8125 C 9.253906 -0.601562 7.660156 0 5.578125 0 Z M 3.921875 -14.96875 L 3.921875 -1.8125 L 5.625 -1.8125 C 7.101562 -1.8125 8.179688 -2.234375 8.859375 -3.078125 C 9.546875 -3.929688 9.898438 -5.191406 9.921875 -6.859375 L 9.921875 -9.84375 C 9.921875 -11.613281 9.578125 -12.910156 8.890625 -13.734375 C 8.210938 -14.554688 7.1875 -14.96875 5.8125 -14.96875 Z M 3.921875 -14.96875 "/></g></g></g><g fill="#ffde59" fill-opacity="1"><g transform="translate(589.691323, 21.58979)"><g><path d="M 12.734375 -6.921875 C 12.734375 -4.628906 12.242188 -2.863281 11.265625 -1.625 C 10.296875 -0.382812 8.910156 0.234375 7.109375 0.234375 C 5.378906 0.234375 4.007812 -0.363281 3 -1.5625 C 2 -2.769531 1.476562 -4.472656 1.4375 -6.671875 L 1.4375 -9.84375 C 1.4375 -12.082031 1.929688 -13.835938 2.921875 -15.109375 C 3.921875 -16.390625 5.304688 -17.03125 7.078125 -17.03125 C 8.847656 -17.03125 10.226562 -16.421875 11.21875 -15.203125 C 12.207031 -13.984375 12.710938 -12.242188 12.734375 -9.984375 Z M 10.625 -9.859375 C 10.625 -11.640625 10.332031 -12.960938 9.75 -13.828125 C 9.164062 -14.691406 8.273438 -15.125 7.078125 -15.125 C 5.921875 -15.125 5.039062 -14.6875 4.4375 -13.8125 C 3.84375 -12.9375 3.546875 -11.644531 3.546875 -9.9375 L 3.546875 -6.921875 C 3.546875 -5.203125 3.84375 -3.894531 4.4375 -3 C 5.03125 -2.101562 5.914062 -1.65625 7.09375 -1.65625 C 8.28125 -1.65625 9.160156 -2.066406 9.734375 -2.890625 C 10.304688 -3.722656 10.601562 -5 10.625 -6.71875 Z M 10.625 -9.859375 "/></g></g></g><g fill="#ffde59" fill-opacity="1"><g transform="translate(609.115239, 21.58979)"><g><path d="M 12.734375 -6.921875 C 12.734375 -4.628906 12.242188 -2.863281 11.265625 -1.625 C 10.296875 -0.382812 8.910156 0.234375 7.109375 0.234375 C 5.378906 0.234375 4.007812 -0.363281 3 -1.5625 C 2 -2.769531 1.476562 -4.472656 1.4375 -6.671875 L 1.4375 -9.84375 C 1.4375 -12.082031 1.929688 -13.835938 2.921875 -15.109375 C 3.921875 -16.390625 5.304688 -17.03125 7.078125 -17.03125 C 8.847656 -17.03125 10.226562 -16.421875 11.21875 -15.203125 C 12.207031 -13.984375 12.710938 -12.242188 12.734375 -9.984375 Z M 10.625 -9.859375 C 10.625 -11.640625 10.332031 -12.960938 9.75 -13.828125 C 9.164062 -14.691406 8.273438 -15.125 7.078125 -15.125 C 5.921875 -15.125 5.039062 -14.6875 4.4375 -13.8125 C 3.84375 -12.9375 3.546875 -11.644531 3.546875 -9.9375 L 3.546875 -6.921875 C 3.546875 -5.203125 3.84375 -3.894531 4.4375 -3 C 5.03125 -2.101562 5.914062 -1.65625 7.09375 -1.65625 C 8.28125 -1.65625 9.160156 -2.066406 9.734375 -2.890625 C 10.304688 -3.722656 10.601562 -5 10.625 -6.71875 Z M 10.625 -9.859375 "/></g></g></g><g fill="#ffde59" fill-opacity="1"><g transform="translate(628.539156, 21.58979)"><g><path d="M 6.890625 -6.796875 L 3.9375 -6.796875 L 3.9375 0 L 1.8125 0 L 1.8125 -16.796875 L 6.515625 -16.796875 C 8.160156 -16.796875 9.40625 -16.363281 10.25 -15.5 C 11.101562 -14.644531 11.53125 -13.394531 11.53125 -11.75 C 11.53125 -10.707031 11.300781 -9.800781 10.84375 -9.03125 C 10.382812 -8.257812 9.734375 -7.675781 8.890625 -7.28125 L 12.140625 -0.140625 L 12.140625 0 L 9.875 0 Z M 3.9375 -8.609375 L 6.5 -8.609375 C 7.382812 -8.609375 8.085938 -8.890625 8.609375 -9.453125 C 9.140625 -10.023438 9.40625 -10.789062 9.40625 -11.75 C 9.40625 -13.894531 8.425781 -14.96875 6.46875 -14.96875 L 3.9375 -14.96875 Z M 3.9375 -8.609375 "/></g></g></g><g fill="#ffde59" fill-opacity="1"><g transform="translate(646.314414, 21.58979)"><g/></g></g><g fill="#ffde59" fill-opacity="1"><g transform="translate(656.964773, 21.58979)"><g><path d="M 9.140625 -4.25 C 9.140625 -5.082031 8.910156 -5.722656 8.453125 -6.171875 C 8.003906 -6.617188 7.1875 -7.050781 6 -7.46875 C 4.820312 -7.894531 3.921875 -8.335938 3.296875 -8.796875 C 2.671875 -9.265625 2.203125 -9.796875 1.890625 -10.390625 C 1.578125 -10.992188 1.421875 -11.679688 1.421875 -12.453125 C 1.421875 -13.773438 1.863281 -14.867188 2.75 -15.734375 C 3.632812 -16.597656 4.796875 -17.03125 6.234375 -17.03125 C 7.222656 -17.03125 8.101562 -16.804688 8.875 -16.359375 C 9.644531 -15.921875 10.234375 -15.304688 10.640625 -14.515625 C 11.054688 -13.734375 11.265625 -12.875 11.265625 -11.9375 L 9.140625 -11.9375 C 9.140625 -12.976562 8.890625 -13.78125 8.390625 -14.34375 C 7.890625 -14.914062 7.171875 -15.203125 6.234375 -15.203125 C 5.378906 -15.203125 4.71875 -14.960938 4.25 -14.484375 C 3.78125 -14.015625 3.546875 -13.347656 3.546875 -12.484375 C 3.546875 -11.773438 3.800781 -11.179688 4.3125 -10.703125 C 4.820312 -10.222656 5.609375 -9.796875 6.671875 -9.421875 C 8.316406 -8.878906 9.492188 -8.207031 10.203125 -7.40625 C 10.921875 -6.601562 11.28125 -5.554688 11.28125 -4.265625 C 11.28125 -2.898438 10.835938 -1.804688 9.953125 -0.984375 C 9.066406 -0.171875 7.863281 0.234375 6.34375 0.234375 C 5.363281 0.234375 4.460938 0.0195312 3.640625 -0.40625 C 2.816406 -0.832031 2.164062 -1.429688 1.6875 -2.203125 C 1.21875 -2.984375 0.984375 -3.875 0.984375 -4.875 L 3.109375 -4.875 C 3.109375 -3.832031 3.394531 -3.019531 3.96875 -2.4375 C 4.550781 -1.863281 5.34375 -1.578125 6.34375 -1.578125 C 7.269531 -1.578125 7.96875 -1.816406 8.4375 -2.296875 C 8.90625 -2.773438 9.140625 -3.425781 9.140625 -4.25 Z M 9.140625 -4.25 "/></g></g></g><g fill="#ffde59" fill-opacity="1"><g transform="translate(674.4403, 21.58979)"><g><path d="M 11.625 -14.96875 L 7.203125 -14.96875 L 7.203125 0 L 5.09375 0 L 5.09375 -14.96875 L 0.6875 -14.96875 L 0.6875 -16.796875 L 11.625 -16.796875 Z M 11.625 -14.96875 "/></g></g></g><g fill="#ffde59" fill-opacity="1"><g transform="translate(691.973461, 21.58979)"><g><path d="M 9.859375 -7.765625 L 3.921875 -7.765625 L 3.921875 -1.8125 L 10.84375 -1.8125 L 10.84375 0 L 1.8125 0 L 1.8125 -16.796875 L 10.734375 -16.796875 L 10.734375 -14.96875 L 3.921875 -14.96875 L 3.921875 -9.578125 L 9.859375 -9.578125 Z M 9.859375 -7.765625 "/></g></g></g><g fill="#ffde59" fill-opacity="1"><g transform="translate(708.941711, 21.58979)"><g><path d="M 3.921875 -6.578125 L 3.921875 0 L 1.8125 0 L 1.8125 -16.796875 L 7.15625 -16.796875 C 8.71875 -16.796875 9.945312 -16.328125 10.84375 -15.390625 C 11.738281 -14.460938 12.1875 -13.21875 12.1875 -11.65625 C 12.1875 -10.039062 11.757812 -8.796875 10.90625 -7.921875 C 10.050781 -7.054688 8.851562 -6.609375 7.3125 -6.578125 Z M 3.921875 -8.390625 L 7.15625 -8.390625 C 8.101562 -8.390625 8.828125 -8.671875 9.328125 -9.234375 C 9.828125 -9.796875 10.078125 -10.597656 10.078125 -11.640625 C 10.078125 -12.648438 9.816406 -13.457031 9.296875 -14.0625 C 8.785156 -14.664062 8.078125 -14.96875 7.171875 -14.96875 L 3.921875 -14.96875 Z M 3.921875 -8.390625 "/></g></g></g></svg>