<svg xmlns="http://www.w3.org/2000/svg" xmlns:xlink="http://www.w3.org/1999/xlink" width="500" zoomAndPan="magnify" viewBox="0 0 375 56.249996" height="75" preserveAspectRatio="xMidYMid meet" version="1.0"><defs><g/></defs><g fill="#ffffff" fill-opacity="1"><g transform="translate(37.900913, 39.751114)"><g><path d="M 28.03125 -10.4375 C 28.03125 -8.757812 27.742188 -7.226562 27.171875 -5.84375 C 26.597656 -4.457031 25.765625 -3.273438 24.671875 -2.296875 C 23.585938 -1.328125 22.269531 -0.578125 20.71875 -0.046875 C 19.164062 0.484375 17.410156 0.75 15.453125 0.75 C 13.503906 0.75 11.753906 0.484375 10.203125 -0.046875 C 8.648438 -0.578125 7.328125 -1.328125 6.234375 -2.296875 C 5.148438 -3.273438 4.320312 -4.457031 3.75 -5.84375 C 3.175781 -7.226562 2.890625 -8.757812 2.890625 -10.4375 L 2.890625 -28.21875 C 3.234375 -28.28125 3.773438 -28.363281 4.515625 -28.46875 C 5.265625 -28.582031 5.976562 -28.640625 6.65625 -28.640625 C 7.375 -28.640625 8.003906 -28.582031 8.546875 -28.46875 C 9.085938 -28.363281 9.539062 -28.171875 9.90625 -27.890625 C 10.28125 -27.609375 10.5625 -27.21875 10.75 -26.71875 C 10.9375 -26.226562 11.03125 -25.578125 11.03125 -24.765625 L 11.03125 -10.5625 C 11.03125 -9.070312 11.441406 -7.90625 12.265625 -7.0625 C 13.085938 -6.226562 14.148438 -5.8125 15.453125 -5.8125 C 16.785156 -5.8125 17.851562 -6.226562 18.65625 -7.0625 C 19.46875 -7.90625 19.875 -9.070312 19.875 -10.5625 L 19.875 -28.21875 C 20.21875 -28.28125 20.757812 -28.363281 21.5 -28.46875 C 22.25 -28.582031 22.96875 -28.640625 23.65625 -28.640625 C 24.363281 -28.640625 24.988281 -28.582031 25.53125 -28.46875 C 26.082031 -28.363281 26.539062 -28.171875 26.90625 -27.890625 C 27.28125 -27.609375 27.5625 -27.21875 27.75 -26.71875 C 27.9375 -26.226562 28.03125 -25.578125 28.03125 -24.765625 Z M 28.03125 -10.4375 "/></g></g></g><g fill="#ffffff" fill-opacity="1"><g transform="translate(68.816028, 39.751114)"><g><path d="M 7.359375 0.140625 C 6.023438 0.140625 4.96875 -0.242188 4.1875 -1.015625 C 3.414062 -1.796875 3.03125 -2.851562 3.03125 -4.1875 L 3.03125 -28.265625 C 3.363281 -28.328125 3.90625 -28.410156 4.65625 -28.515625 C 5.40625 -28.628906 6.117188 -28.6875 6.796875 -28.6875 C 7.515625 -28.6875 8.144531 -28.628906 8.6875 -28.515625 C 9.226562 -28.410156 9.679688 -28.21875 10.046875 -27.9375 C 10.421875 -27.65625 10.703125 -27.265625 10.890625 -26.765625 C 11.078125 -26.273438 11.171875 -25.625 11.171875 -24.8125 L 11.171875 -6.421875 L 21.84375 -6.421875 C 22.050781 -6.078125 22.25 -5.617188 22.4375 -5.046875 C 22.625 -4.472656 22.71875 -3.878906 22.71875 -3.265625 C 22.71875 -2.015625 22.453125 -1.132812 21.921875 -0.625 C 21.398438 -0.113281 20.703125 0.140625 19.828125 0.140625 Z M 7.359375 0.140625 "/></g></g></g><g fill="#ffffff" fill-opacity="1"><g transform="translate(92.700752, 39.751114)"><g><path d="M 1.71875 -21.703125 C 1.5 -22.035156 1.296875 -22.5 1.109375 -23.09375 C 0.929688 -23.6875 0.84375 -24.304688 0.84375 -24.953125 C 0.84375 -26.160156 1.113281 -27.03125 1.65625 -27.5625 C 2.195312 -28.09375 2.898438 -28.359375 3.765625 -28.359375 L 24.078125 -28.359375 C 24.296875 -28.015625 24.492188 -27.546875 24.671875 -26.953125 C 24.859375 -26.367188 24.953125 -25.75 24.953125 -25.09375 C 24.953125 -23.882812 24.679688 -23.015625 24.140625 -22.484375 C 23.597656 -21.960938 22.894531 -21.703125 22.03125 -21.703125 L 16.859375 -21.703125 L 16.859375 -0.1875 C 16.515625 -0.09375 15.976562 0 15.25 0.09375 C 14.519531 0.1875 13.796875 0.234375 13.078125 0.234375 C 12.367188 0.234375 11.742188 0.175781 11.203125 0.0625 C 10.660156 -0.0390625 10.203125 -0.234375 9.828125 -0.515625 C 9.453125 -0.796875 9.171875 -1.179688 8.984375 -1.671875 C 8.796875 -2.171875 8.703125 -2.820312 8.703125 -3.625 L 8.703125 -21.703125 Z M 1.71875 -21.703125 "/></g></g></g><g fill="#ffffff" fill-opacity="1"><g transform="translate(118.587511, 39.751114)"><g><path d="M 11.125 -9.125 L 11.125 -0.1875 C 10.78125 -0.09375 10.242188 0 9.515625 0.09375 C 8.785156 0.1875 8.066406 0.234375 7.359375 0.234375 C 6.640625 0.234375 6.007812 0.175781 5.46875 0.0625 C 4.925781 -0.0390625 4.472656 -0.234375 4.109375 -0.515625 C 3.753906 -0.796875 3.484375 -1.179688 3.296875 -1.671875 C 3.117188 -2.171875 3.03125 -2.820312 3.03125 -3.625 L 3.03125 -25.5625 C 3.03125 -26.21875 3.207031 -26.722656 3.5625 -27.078125 C 3.914062 -27.429688 4.40625 -27.71875 5.03125 -27.9375 C 6.082031 -28.3125 7.304688 -28.582031 8.703125 -28.75 C 10.097656 -28.925781 11.585938 -29.015625 13.171875 -29.015625 C 17.460938 -29.015625 20.691406 -28.113281 22.859375 -26.3125 C 25.035156 -24.507812 26.125 -22.070312 26.125 -19 C 26.125 -17.070312 25.625 -15.425781 24.625 -14.0625 C 23.632812 -12.695312 22.457031 -11.640625 21.09375 -10.890625 C 22.207031 -9.367188 23.304688 -7.941406 24.390625 -6.609375 C 25.484375 -5.273438 26.335938 -4.066406 26.953125 -2.984375 C 26.648438 -1.890625 26.085938 -1.054688 25.265625 -0.484375 C 24.441406 0.0859375 23.515625 0.375 22.484375 0.375 C 21.804688 0.375 21.21875 0.296875 20.71875 0.140625 C 20.21875 -0.015625 19.78125 -0.234375 19.40625 -0.515625 C 19.039062 -0.796875 18.703125 -1.132812 18.390625 -1.53125 C 18.078125 -1.9375 17.78125 -2.375 17.5 -2.84375 L 13.59375 -9.125 Z M 14.0625 -15.3125 C 15.238281 -15.3125 16.164062 -15.613281 16.84375 -16.21875 C 17.53125 -16.832031 17.875 -17.726562 17.875 -18.90625 C 17.875 -20.082031 17.492188 -20.972656 16.734375 -21.578125 C 15.972656 -22.179688 14.769531 -22.484375 13.125 -22.484375 C 12.664062 -22.484375 12.296875 -22.46875 12.015625 -22.4375 C 11.734375 -22.40625 11.421875 -22.359375 11.078125 -22.296875 L 11.078125 -15.3125 Z M 14.0625 -15.3125 "/></g></g></g><g fill="#ffffff" fill-opacity="1"><g transform="translate(146.94189, 39.751114)"><g><path d="M 9.03125 -27.375 C 9.5625 -27.6875 10.359375 -27.984375 11.421875 -28.265625 C 12.492188 -28.546875 13.578125 -28.6875 14.671875 -28.6875 C 16.222656 -28.6875 17.59375 -28.457031 18.78125 -28 C 19.976562 -27.550781 20.75 -26.847656 21.09375 -25.890625 C 21.65625 -24.273438 22.257812 -22.394531 22.90625 -20.25 C 23.5625 -18.113281 24.210938 -15.90625 24.859375 -13.625 C 25.515625 -11.34375 26.148438 -9.085938 26.765625 -6.859375 C 27.390625 -4.640625 27.9375 -2.679688 28.40625 -0.984375 C 28.03125 -0.546875 27.46875 -0.195312 26.71875 0.0625 C 25.976562 0.332031 25.097656 0.46875 24.078125 0.46875 C 23.328125 0.46875 22.695312 0.40625 22.1875 0.28125 C 21.675781 0.15625 21.253906 -0.03125 20.921875 -0.28125 C 20.597656 -0.53125 20.332031 -0.851562 20.125 -1.25 C 19.925781 -1.65625 19.753906 -2.125 19.609375 -2.65625 L 18.765625 -5.859375 L 10.34375 -5.859375 C 10.09375 -4.929688 9.84375 -3.96875 9.59375 -2.96875 C 9.34375 -1.976562 9.09375 -1.019531 8.84375 -0.09375 C 8.40625 0.0625 7.945312 0.191406 7.46875 0.296875 C 6.988281 0.410156 6.410156 0.46875 5.734375 0.46875 C 4.148438 0.46875 2.976562 0.195312 2.21875 -0.34375 C 1.457031 -0.882812 1.078125 -1.640625 1.078125 -2.609375 C 1.078125 -3.046875 1.132812 -3.476562 1.25 -3.90625 C 1.375 -4.34375 1.515625 -4.859375 1.671875 -5.453125 C 1.890625 -6.285156 2.191406 -7.320312 2.578125 -8.5625 C 2.972656 -9.8125 3.398438 -11.15625 3.859375 -12.59375 C 4.328125 -14.039062 4.820312 -15.523438 5.34375 -17.046875 C 5.875 -18.566406 6.375 -20 6.84375 -21.34375 C 7.3125 -22.695312 7.738281 -23.898438 8.125 -24.953125 C 8.507812 -26.015625 8.8125 -26.820312 9.03125 -27.375 Z M 14.625 -21.375 C 14.1875 -20.070312 13.695312 -18.617188 13.15625 -17.015625 C 12.613281 -15.421875 12.125 -13.800781 11.6875 -12.15625 L 17.453125 -12.15625 C 17.023438 -13.832031 16.582031 -15.46875 16.125 -17.0625 C 15.675781 -18.664062 15.269531 -20.101562 14.90625 -21.375 Z M 14.625 -21.375 "/></g></g></g><g fill="#ffffff" fill-opacity="1"><g transform="translate(176.134327, 39.751114)"><g><path d="M 2.28125 -8.65625 C 2.0625 -9 1.859375 -9.445312 1.671875 -10 C 1.484375 -10.5625 1.390625 -11.15625 1.390625 -11.78125 C 1.390625 -12.925781 1.65625 -13.753906 2.1875 -14.265625 C 2.71875 -14.785156 3.398438 -15.046875 4.234375 -15.046875 L 14.203125 -15.046875 C 14.390625 -14.703125 14.582031 -14.25 14.78125 -13.6875 C 14.988281 -13.125 15.09375 -12.535156 15.09375 -11.921875 C 15.09375 -10.773438 14.828125 -9.941406 14.296875 -9.421875 C 13.765625 -8.910156 13.082031 -8.65625 12.25 -8.65625 Z M 2.28125 -8.65625 "/></g></g></g><g fill="#ffffff" fill-opacity="1"><g transform="translate(192.616178, 39.751114)"><g><path d="M 22.859375 -28.21875 C 23.078125 -27.875 23.269531 -27.414062 23.4375 -26.84375 C 23.613281 -26.269531 23.703125 -25.671875 23.703125 -25.046875 C 23.703125 -23.835938 23.441406 -22.976562 22.921875 -22.46875 C 22.410156 -21.957031 21.722656 -21.703125 20.859375 -21.703125 L 11.078125 -21.703125 L 11.078125 -16.4375 L 21.28125 -16.4375 C 21.53125 -16.09375 21.738281 -15.640625 21.90625 -15.078125 C 22.070312 -14.523438 22.15625 -13.9375 22.15625 -13.3125 C 22.15625 -12.132812 21.898438 -11.289062 21.390625 -10.78125 C 20.878906 -10.269531 20.191406 -10.015625 19.328125 -10.015625 L 11.171875 -10.015625 L 11.171875 -0.1875 C 10.828125 -0.09375 10.289062 0 9.5625 0.09375 C 8.832031 0.1875 8.113281 0.234375 7.40625 0.234375 C 6.6875 0.234375 6.054688 0.175781 5.515625 0.0625 C 4.972656 -0.0390625 4.515625 -0.234375 4.140625 -0.515625 C 3.765625 -0.796875 3.484375 -1.179688 3.296875 -1.671875 C 3.117188 -2.171875 3.03125 -2.820312 3.03125 -3.625 L 3.03125 -23.890625 C 3.03125 -25.222656 3.414062 -26.273438 4.1875 -27.046875 C 4.96875 -27.828125 6.023438 -28.21875 7.359375 -28.21875 Z M 22.859375 -28.21875 "/></g></g></g><g fill="#ffffff" fill-opacity="1"><g transform="translate(217.33896, 39.751114)"><g><path d="M 11.125 -9.125 L 11.125 -0.1875 C 10.78125 -0.09375 10.242188 0 9.515625 0.09375 C 8.785156 0.1875 8.066406 0.234375 7.359375 0.234375 C 6.640625 0.234375 6.007812 0.175781 5.46875 0.0625 C 4.925781 -0.0390625 4.472656 -0.234375 4.109375 -0.515625 C 3.753906 -0.796875 3.484375 -1.179688 3.296875 -1.671875 C 3.117188 -2.171875 3.03125 -2.820312 3.03125 -3.625 L 3.03125 -25.5625 C 3.03125 -26.21875 3.207031 -26.722656 3.5625 -27.078125 C 3.914062 -27.429688 4.40625 -27.71875 5.03125 -27.9375 C 6.082031 -28.3125 7.304688 -28.582031 8.703125 -28.75 C 10.097656 -28.925781 11.585938 -29.015625 13.171875 -29.015625 C 17.460938 -29.015625 20.691406 -28.113281 22.859375 -26.3125 C 25.035156 -24.507812 26.125 -22.070312 26.125 -19 C 26.125 -17.070312 25.625 -15.425781 24.625 -14.0625 C 23.632812 -12.695312 22.457031 -11.640625 21.09375 -10.890625 C 22.207031 -9.367188 23.304688 -7.941406 24.390625 -6.609375 C 25.484375 -5.273438 26.335938 -4.066406 26.953125 -2.984375 C 26.648438 -1.890625 26.085938 -1.054688 25.265625 -0.484375 C 24.441406 0.0859375 23.515625 0.375 22.484375 0.375 C 21.804688 0.375 21.21875 0.296875 20.71875 0.140625 C 20.21875 -0.015625 19.78125 -0.234375 19.40625 -0.515625 C 19.039062 -0.796875 18.703125 -1.132812 18.390625 -1.53125 C 18.078125 -1.9375 17.78125 -2.375 17.5 -2.84375 L 13.59375 -9.125 Z M 14.0625 -15.3125 C 15.238281 -15.3125 16.164062 -15.613281 16.84375 -16.21875 C 17.53125 -16.832031 17.875 -17.726562 17.875 -18.90625 C 17.875 -20.082031 17.492188 -20.972656 16.734375 -21.578125 C 15.972656 -22.179688 14.769531 -22.484375 13.125 -22.484375 C 12.664062 -22.484375 12.296875 -22.46875 12.015625 -22.4375 C 11.734375 -22.40625 11.421875 -22.359375 11.078125 -22.296875 L 11.078125 -15.3125 Z M 14.0625 -15.3125 "/></g></g></g><g fill="#ffffff" fill-opacity="1"><g transform="translate(245.693328, 39.751114)"><g><path d="M 3.03125 -23.890625 C 3.03125 -25.222656 3.414062 -26.273438 4.1875 -27.046875 C 4.96875 -27.828125 6.023438 -28.21875 7.359375 -28.21875 L 22.71875 -28.21875 C 22.9375 -27.875 23.128906 -27.421875 23.296875 -26.859375 C 23.472656 -26.304688 23.5625 -25.71875 23.5625 -25.09375 C 23.5625 -23.914062 23.304688 -23.078125 22.796875 -22.578125 C 22.285156 -22.085938 21.609375 -21.84375 20.765625 -21.84375 L 10.9375 -21.84375 L 10.9375 -17.5 L 21.421875 -17.5 C 21.640625 -17.164062 21.832031 -16.722656 22 -16.171875 C 22.164062 -15.628906 22.25 -15.050781 22.25 -14.4375 C 22.25 -13.257812 22 -12.421875 21.5 -11.921875 C 21.007812 -11.421875 20.347656 -11.171875 19.515625 -11.171875 L 10.9375 -11.171875 L 10.9375 -6.28125 L 22.90625 -6.28125 C 23.125 -5.945312 23.316406 -5.5 23.484375 -4.9375 C 23.660156 -4.375 23.75 -3.785156 23.75 -3.171875 C 23.75 -1.984375 23.488281 -1.132812 22.96875 -0.625 C 22.457031 -0.113281 21.785156 0.140625 20.953125 0.140625 L 7.359375 0.140625 C 6.023438 0.140625 4.96875 -0.242188 4.1875 -1.015625 C 3.414062 -1.796875 3.03125 -2.851562 3.03125 -4.1875 Z M 3.03125 -23.890625 "/></g></g></g><g fill="#ffffff" fill-opacity="1"><g transform="translate(271.207627, 39.751114)"><g><path d="M 11.03125 -11.21875 C 9.664062 -11.6875 8.425781 -12.160156 7.3125 -12.640625 C 6.195312 -13.117188 5.234375 -13.695312 4.421875 -14.375 C 3.617188 -15.0625 2.988281 -15.878906 2.53125 -16.828125 C 2.082031 -17.773438 1.859375 -18.929688 1.859375 -20.296875 C 1.859375 -22.941406 2.875 -25.054688 4.90625 -26.640625 C 6.945312 -28.222656 9.796875 -29.015625 13.453125 -29.015625 C 14.785156 -29.015625 16.023438 -28.921875 17.171875 -28.734375 C 18.328125 -28.546875 19.316406 -28.253906 20.140625 -27.859375 C 20.960938 -27.472656 21.601562 -26.976562 22.0625 -26.375 C 22.53125 -25.769531 22.765625 -25.066406 22.765625 -24.265625 C 22.765625 -23.453125 22.578125 -22.757812 22.203125 -22.1875 C 21.835938 -21.613281 21.390625 -21.125 20.859375 -20.71875 C 20.171875 -21.15625 19.253906 -21.535156 18.109375 -21.859375 C 16.960938 -22.179688 15.707031 -22.34375 14.34375 -22.34375 C 12.945312 -22.34375 11.921875 -22.148438 11.265625 -21.765625 C 10.617188 -21.378906 10.296875 -20.890625 10.296875 -20.296875 C 10.296875 -19.835938 10.492188 -19.457031 10.890625 -19.15625 C 11.296875 -18.863281 11.90625 -18.59375 12.71875 -18.34375 L 15.171875 -17.546875 C 18.097656 -16.617188 20.34375 -15.429688 21.90625 -13.984375 C 23.476562 -12.546875 24.265625 -10.585938 24.265625 -8.109375 C 24.265625 -5.460938 23.222656 -3.320312 21.140625 -1.6875 C 19.054688 -0.0625 16 0.75 11.96875 0.75 C 10.539062 0.75 9.210938 0.628906 7.984375 0.390625 C 6.753906 0.160156 5.679688 -0.175781 4.765625 -0.625 C 3.859375 -1.070312 3.144531 -1.628906 2.625 -2.296875 C 2.113281 -2.972656 1.859375 -3.742188 1.859375 -4.609375 C 1.859375 -5.503906 2.125 -6.269531 2.65625 -6.90625 C 3.1875 -7.550781 3.757812 -8.039062 4.375 -8.375 C 5.25 -7.695312 6.3125 -7.109375 7.5625 -6.609375 C 8.820312 -6.109375 10.195312 -5.859375 11.6875 -5.859375 C 13.207031 -5.859375 14.273438 -6.09375 14.890625 -6.5625 C 15.515625 -7.03125 15.828125 -7.570312 15.828125 -8.1875 C 15.828125 -8.8125 15.578125 -9.285156 15.078125 -9.609375 C 14.585938 -9.941406 13.890625 -10.257812 12.984375 -10.5625 Z M 11.03125 -11.21875 "/></g></g></g><g fill="#ffffff" fill-opacity="1"><g transform="translate(296.861581, 39.751114)"><g><path d="M 28.265625 -0.1875 C 27.921875 -0.09375 27.382812 0 26.65625 0.09375 C 25.925781 0.1875 25.203125 0.234375 24.484375 0.234375 C 23.773438 0.234375 23.148438 0.175781 22.609375 0.0625 C 22.066406 -0.0390625 21.609375 -0.234375 21.234375 -0.515625 C 20.859375 -0.796875 20.578125 -1.179688 20.390625 -1.671875 C 20.203125 -2.171875 20.109375 -2.820312 20.109375 -3.625 L 20.109375 -10.890625 L 11.171875 -10.890625 L 11.171875 -0.1875 C 10.828125 -0.09375 10.289062 0 9.5625 0.09375 C 8.832031 0.1875 8.113281 0.234375 7.40625 0.234375 C 6.6875 0.234375 6.054688 0.175781 5.515625 0.0625 C 4.972656 -0.0390625 4.515625 -0.234375 4.140625 -0.515625 C 3.765625 -0.796875 3.484375 -1.179688 3.296875 -1.671875 C 3.117188 -2.171875 3.03125 -2.820312 3.03125 -3.625 L 3.03125 -28.21875 C 3.363281 -28.28125 3.90625 -28.363281 4.65625 -28.46875 C 5.40625 -28.582031 6.117188 -28.640625 6.796875 -28.640625 C 7.515625 -28.640625 8.144531 -28.582031 8.6875 -28.46875 C 9.226562 -28.363281 9.679688 -28.171875 10.046875 -27.890625 C 10.421875 -27.609375 10.703125 -27.21875 10.890625 -26.71875 C 11.078125 -26.226562 11.171875 -25.578125 11.171875 -24.765625 L 11.171875 -17.328125 L 20.109375 -17.328125 L 20.109375 -28.21875 C 20.453125 -28.28125 20.992188 -28.363281 21.734375 -28.46875 C 22.484375 -28.582031 23.203125 -28.640625 23.890625 -28.640625 C 24.597656 -28.640625 25.222656 -28.582031 25.765625 -28.46875 C 26.316406 -28.363281 26.773438 -28.171875 27.140625 -27.890625 C 27.515625 -27.609375 27.796875 -27.21875 27.984375 -26.71875 C 28.171875 -26.226562 28.265625 -25.578125 28.265625 -24.765625 Z M 28.265625 -0.1875 "/></g></g></g><g fill="#ffffff" fill-opacity="1"><g transform="translate(328.148106, 39.751114)"><g/></g></g><g fill="#ffde59" fill-opacity="1"><g transform="translate(340.145464, 39.076048)"><g><path d="M 11.945312 -9.117188 C 11.152344 -9.59375 10.359375 -9.851562 9.5 -9.945312 C 9.660156 -10.644531 9.660156 -11.375 9.339844 -12.042969 C 8.707031 -13.3125 7.210938 -13.695312 5.941406 -13.21875 C 4.226562 -12.582031 2.828125 -11.027344 1.652344 -9.246094 C 3.050781 -13.757812 4.765625 -18.175781 6.226562 -22.621094 C 6.546875 -23.578125 5.050781 -23.988281 4.734375 -23.035156 C 2.605469 -16.554688 -0.128906 -10.199219 -1.523438 -3.496094 C -1.714844 -2.667969 -0.507812 -2.066406 -0.0625 -2.890625 C 0.890625 -4.640625 1.875 -6.417969 2.988281 -8.070312 C 3.558594 -8.898438 7.65625 -14.140625 8.007812 -10.707031 C 8.007812 -10.515625 7.910156 -10.199219 7.722656 -9.816406 C 7.085938 -9.691406 6.417969 -9.46875 5.78125 -9.152344 C 4.542969 -8.546875 2.699219 -7.277344 2.605469 -5.71875 C 2.574219 -4.480469 3.589844 -3.875 4.734375 -4.128906 C 6.292969 -4.480469 7.625 -6.195312 8.453125 -7.5 C 8.609375 -7.753906 8.769531 -8.039062 8.929688 -8.355469 C 9.691406 -8.355469 10.421875 -8.199219 11.152344 -7.753906 C 12.011719 -7.210938 12.835938 -8.578125 11.945312 -9.117188 Z M 4.289062 -5.65625 C 3.90625 -6.195312 6.003906 -7.46875 6.511719 -7.753906 C 5.59375 -6.417969 4.574219 -5.273438 4.289062 -5.65625 Z M 4.289062 -5.65625 "/></g></g></g><g fill="#ffde59" fill-opacity="1"><g transform="translate(351.423016, 39.076048)"><g><path d="M 13.566406 -6.769531 C 11.820312 -6.132812 9.976562 -5.464844 8.199219 -4.640625 C 8.992188 -7.277344 9.691406 -9.945312 10.453125 -12.582031 C 10.515625 -12.742188 10.550781 -12.867188 10.515625 -12.996094 C 10.515625 -13.15625 10.453125 -13.28125 10.359375 -13.375 C 10.039062 -13.757812 9.375 -13.886719 9.054688 -13.3125 C 8.132812 -11.722656 7.148438 -10.167969 6.003906 -8.738281 C 5.371094 -7.910156 3.367188 -5.117188 2.066406 -5.65625 C 0.605469 -6.257812 3.429688 -11.660156 3.558594 -12.898438 C 3.652344 -13.726562 2.222656 -13.949219 2.097656 -13.121094 C 1.78125 -11.027344 -2.066406 -5.304688 1.492188 -4.128906 C 3.367188 -3.527344 5.117188 -5.273438 6.226562 -6.511719 C 6.703125 -7.023438 7.148438 -7.59375 7.59375 -8.132812 C 7.246094 -6.957031 6.894531 -5.75 6.511719 -4.542969 C 6.417969 -4.257812 6.324219 -3.972656 6.257812 -3.6875 C 4.195312 -2.574219 2.289062 -1.207031 0.824219 0.570312 C -0.414062 2.066406 -2.734375 7.117188 0.570312 7.847656 C 3.875 8.578125 5.78125 2.445312 6.578125 0.285156 C 6.925781 -0.667969 7.246094 -1.621094 7.5625 -2.574219 C 9.660156 -3.621094 11.882812 -4.449219 14.011719 -5.242188 C 14.964844 -5.59375 14.550781 -7.117188 13.566406 -6.769531 Z M 2.699219 4.863281 C 2.320312 5.402344 1.429688 6.480469 0.859375 6.101562 C 0.285156 5.71875 0.539062 4.480469 0.699219 3.941406 C 1.046875 2.699219 1.96875 1.589844 2.859375 0.730469 C 3.652344 -0.09375 4.574219 -0.792969 5.558594 -1.398438 C 4.828125 0.824219 4.003906 3.050781 2.699219 4.863281 Z M 2.699219 4.863281 "/></g></g></g></svg>