<svg xmlns="http://www.w3.org/2000/svg" xmlns:xlink="http://www.w3.org/1999/xlink" width="500" zoomAndPan="magnify" viewBox="0 0 375 145.500001" height="194" preserveAspectRatio="xMidYMid meet" version="1.0"><defs><g/><clipPath id="bb401fdc23"><path d="M 0.640625 67 L 374.355469 67 L 374.355469 144 L 0.640625 144 Z M 0.640625 67 " clip-rule="nonzero"/></clipPath></defs><g clip-path="url(#bb401fdc23)"><path stroke-linecap="butt" transform="matrix(0.899005, 0, 0, 0.899005, 0.642123, 74.668214)" fill="none" stroke-linejoin="miter" d="M 61.064103 25.305479 C 61.064103 28.725058 60.247227 31.697094 58.613477 34.212895 C 56.975381 36.728697 54.676834 38.666603 51.704798 40.022269 C 48.737108 41.364899 45.326219 42.038386 41.476477 42.038386 L 31.717426 42.038386 C 31.152565 42.038386 30.86579 42.307781 30.86579 42.837881 L 30.86579 58.932061 C 30.86579 59.696795 30.674606 60.235586 30.292239 60.548431 C 29.909872 60.848242 29.318941 61.00032 28.519446 61.00032 L 16.531367 61.00032 C 15.827464 61.00032 15.340815 60.861277 15.07142 60.583192 C 14.81506 60.292072 14.689053 59.840183 14.689053 59.227527 L 14.689053 9.771815 C 14.689053 8.681199 15.140942 8.138064 16.044718 8.138064 L 39.634163 8.138064 C 43.622947 8.138064 47.2424 8.789827 50.488175 10.102041 C 53.746986 11.40122 56.323619 13.330436 58.213729 15.894034 C 60.11253 18.457632 61.064103 21.59478 61.064103 25.305479 Z M 44.53976 25.096915 C 44.53976 23.428404 43.970554 22.081429 42.836488 21.060335 C 41.698077 20.039241 40.294615 19.530867 38.626104 19.530867 L 32.503885 19.530867 C 31.886884 19.530867 31.456721 19.652529 31.213396 19.895854 C 30.983107 20.126143 30.86579 20.504165 30.86579 21.025575 L 30.86579 29.081355 C 30.86579 29.646215 30.961381 30.054653 31.143875 30.297977 C 31.343749 30.528267 31.647904 30.645584 32.065032 30.645584 L 39.060612 30.645584 C 40.720433 30.645584 42.045683 30.111139 43.045052 29.046594 C 44.040075 27.977704 44.53976 26.661145 44.53976 25.096915 Z M 113.009546 58.719152 C 113.100793 58.905991 113.148588 59.166696 113.148588 59.505612 C 113.148588 59.93143 113.013891 60.292072 112.748841 60.583192 C 112.492481 60.861277 112.15791 61.00032 111.740782 61.00032 L 97.910389 61.00032 C 96.911021 61.00032 96.267949 60.500635 95.981173 59.505612 L 89.281059 41.117229 C 89.142016 40.734862 88.907382 40.452432 88.568465 40.265593 C 88.242584 40.078755 87.747245 39.987508 87.073757 39.987508 L 83.801911 39.987508 C 83.515136 39.987508 83.297882 40.078755 83.158839 40.265593 C 83.019797 40.452432 82.950276 40.617545 82.950276 40.769623 L 82.950276 58.932061 C 82.950276 59.696795 82.759092 60.235586 82.376725 60.548431 C 81.994358 60.848242 81.403427 61.00032 80.603932 61.00032 L 68.615853 61.00032 C 67.907605 61.00032 67.420956 60.861277 67.155906 60.583192 C 66.899546 60.292072 66.773539 59.840183 66.773539 59.227527 L 66.773539 9.771815 C 66.773539 8.681199 67.225427 8.138064 68.129204 8.138064 L 91.927213 8.138064 C 98.814166 8.138064 104.154271 9.454624 107.947527 12.083398 C 111.749472 14.716517 113.652618 18.435906 113.652618 23.237221 C 113.652618 26.517757 112.783602 29.437651 111.045569 32.001249 C 109.316227 34.564847 107.07851 36.368056 104.328074 37.410875 C 104.041299 37.562953 103.893566 37.801932 103.893566 38.123468 C 103.893566 38.266856 103.941362 38.479765 104.032609 38.770885 Z M 91.284141 29.35944 C 93.091695 29.35944 94.482121 28.898861 95.459764 27.986394 C 96.433062 27.056547 96.919711 25.805164 96.919711 24.227899 C 96.919711 22.476832 96.333125 21.112476 95.159953 20.139178 C 94.004162 19.16588 92.56594 18.679231 90.849633 18.679231 L 84.584026 18.679231 C 83.97137 18.679231 83.541207 18.787858 83.297882 19.009457 C 83.067593 19.218021 82.950276 19.583008 82.950276 20.104417 L 82.950276 27.860387 C 82.950276 28.386142 83.032832 28.768509 83.1936 29.011833 C 83.354368 29.242123 83.675904 29.35944 84.149518 29.35944 Z M 143.590226 61.712913 C 138.406544 61.712913 133.874625 60.613608 130.003158 58.406306 C 126.131691 56.19466 123.150965 53.057512 121.060981 48.999206 C 118.975342 44.936555 117.932523 40.178692 117.932523 34.716925 C 117.932523 29.255158 118.988377 24.471224 121.095742 20.365122 C 123.220486 16.250331 126.209902 13.065386 130.072679 10.814634 C 133.944146 8.555192 138.449995 7.425471 143.590226 7.425471 C 148.669626 7.425471 153.127679 8.555192 156.964385 10.814634 C 160.814127 13.065386 163.794853 16.250331 165.906562 20.365122 C 168.026961 24.471224 169.091506 29.255158 169.091506 34.716925 C 169.091506 40.130896 168.039997 44.880069 165.941323 48.964445 C 163.855684 53.044476 160.883648 56.19466 157.033907 58.406306 C 153.1972 60.613608 148.713076 61.712913 143.590226 61.712913 Z M 143.590226 50.598196 C 145.675865 50.598196 147.335686 50.085476 148.565344 49.068727 C 149.803692 48.047633 150.707469 46.400848 151.276674 44.12837 C 151.84588 41.842858 152.12831 38.77523 152.12831 34.925489 C 152.12831 29.033559 151.463513 24.805795 150.129573 22.242197 C 148.808668 19.682945 146.627438 18.401146 143.590226 18.401146 C 140.492183 18.401146 138.267502 19.682945 136.907491 22.242197 C 135.564861 24.805795 134.891374 29.033559 134.891374 34.925489 C 134.891374 38.77523 135.173804 41.842858 135.74301 44.12837 C 136.312215 46.400848 137.220337 48.047633 138.476066 49.068727 C 139.740484 50.085476 141.443756 50.598196 143.590226 50.598196 Z M 198.364317 61.712913 C 193.42396 61.712913 189.061499 60.578847 185.281278 58.302024 C 181.514093 56.020857 178.598544 52.848948 176.53463 48.790642 C 174.466372 44.719301 173.436587 40.052684 173.436587 34.786446 C 173.436587 29.36813 174.527203 24.597231 176.708433 20.469404 C 178.898354 16.328542 181.952946 13.121872 185.872209 10.849395 C 189.791472 8.563882 194.271251 7.425471 199.302854 7.425471 C 203.382886 7.425471 207.024063 8.172825 210.226388 9.667533 C 213.437403 11.162241 216.031416 13.100147 218.004083 15.476906 C 219.972405 17.844975 221.267239 20.360777 221.879895 23.028657 C 222.018938 23.593517 222.088459 24.045406 222.088459 24.384322 C 222.088459 24.814485 221.997213 25.096915 221.810374 25.235958 C 221.627881 25.375001 221.31938 25.466247 220.889217 25.514043 L 208.69692 27.373738 C 208.17551 27.373738 207.845284 27.282491 207.706241 27.095653 C 207.567199 26.900124 207.419466 26.517757 207.271733 25.948551 C 206.898056 23.758631 206.01166 21.964112 204.608198 20.573686 C 203.204737 19.170225 201.314627 18.470667 198.937868 18.470667 C 196.143981 18.470667 194.019236 19.669909 192.572324 22.068394 C 191.121067 24.458189 190.395438 28.551255 190.395438 34.351938 C 190.395438 40.426361 191.177553 44.654125 192.746127 47.030884 C 194.310356 49.407644 196.565453 50.598196 199.511418 50.598196 C 203.36116 50.598196 205.924758 48.93403 207.202212 45.605698 L 207.428156 44.962626 L 207.567199 44.406455 C 207.567199 43.976292 207.306494 43.763383 206.780739 43.763383 L 200.084969 43.763383 C 199.563559 43.763383 199.194227 43.646066 198.972628 43.415777 C 198.764064 43.168107 198.659783 42.764015 198.659783 42.194809 L 198.659783 35.342616 C 198.659783 34.543122 199.159467 34.143374 200.15449 34.143374 L 220.107102 34.282417 C 220.954393 34.282417 221.614845 34.48229 222.088459 34.890728 C 222.566418 35.294821 222.805398 35.829266 222.805398 36.489718 L 222.805398 59.783697 C 222.805398 60.118268 222.683735 60.409389 222.436066 60.652713 C 222.205776 60.883003 221.927691 61.00032 221.60181 61.00032 L 218.89048 61.00032 C 218.030154 61.00032 217.269764 60.548431 216.609312 59.644655 L 213.758939 55.521173 C 213.711143 55.369095 213.619896 55.295228 213.480854 55.295228 C 213.385262 55.295228 213.220149 55.416891 212.976824 55.660215 C 211.747166 56.842077 210.56965 57.841446 209.444274 58.649631 C 208.331933 59.453471 206.845915 60.166064 204.990566 60.791756 C 203.148251 61.404412 200.936605 61.712913 198.364317 61.712913 Z M 275.459089 58.719152 C 275.550336 58.905991 275.598132 59.166696 275.598132 59.505612 C 275.598132 59.93143 275.463434 60.292072 275.198384 60.583192 C 274.942024 60.861277 274.607453 61.00032 274.190325 61.00032 L 260.359933 61.00032 C 259.364909 61.00032 258.717492 60.500635 258.430717 59.505612 L 251.730602 41.117229 C 251.591559 40.734862 251.356925 40.452432 251.018009 40.265593 C 250.696473 40.078755 250.196788 39.987508 249.523301 39.987508 L 246.251455 39.987508 C 245.964679 39.987508 245.747425 40.078755 245.608383 40.265593 C 245.46934 40.452432 245.399819 40.617545 245.399819 40.769623 L 245.399819 58.932061 C 245.399819 59.696795 245.208635 60.235586 244.826268 60.548431 C 244.443901 60.848242 243.85297 61.00032 243.053475 61.00032 L 231.065397 61.00032 C 230.361493 61.00032 229.870499 60.861277 229.605449 60.583192 C 229.34909 60.292072 229.223082 59.840183 229.223082 59.227527 L 229.223082 9.771815 C 229.223082 8.681199 229.674971 8.138064 230.578748 8.138064 L 254.376756 8.138064 C 261.26371 8.138064 266.603814 9.454624 270.39707 12.083398 C 274.199016 14.716517 276.102161 18.435906 276.102161 23.237221 C 276.102161 26.517757 275.233145 29.437651 273.495113 32.001249 C 271.76577 34.564847 269.528054 36.368056 266.777617 37.410875 C 266.490842 37.562953 266.343109 37.801932 266.343109 38.123468 C 266.343109 38.266856 266.390905 38.479765 266.482152 38.770885 Z M 253.733684 29.35944 C 255.541238 29.35944 256.931664 28.898861 257.909307 27.986394 C 258.882605 27.056547 259.369254 25.805164 259.369254 24.227899 C 259.369254 22.476832 258.782668 21.112476 257.613841 20.139178 C 256.453705 19.16588 255.015483 18.679231 253.299176 18.679231 L 247.033569 18.679231 C 246.420913 18.679231 245.99075 18.787858 245.747425 19.009457 C 245.517136 19.218021 245.399819 19.583008 245.399819 20.104417 L 245.399819 27.860387 C 245.399819 28.386142 245.482375 28.768509 245.643143 29.011833 C 245.808256 29.242123 246.125447 29.35944 246.599061 29.35944 Z M 281.233702 61.00032 C 280.851335 61.00032 280.538489 60.874312 280.295164 60.617953 C 280.06053 60.348558 279.947558 59.979226 279.947558 59.505612 C 279.947558 59.166696 280.021424 58.784328 280.173502 58.354165 L 297.410438 9.771815 C 297.640728 9.159158 297.901432 8.73334 298.192553 8.503051 C 298.483673 8.259727 298.935562 8.138064 299.548218 8.138064 L 313.587175 8.138064 C 314.15638 8.138064 314.664755 8.316213 315.116643 8.676854 C 315.572877 9.024461 315.911793 9.480694 316.146428 10.0499 L 333.244321 58.58011 C 333.335568 58.966822 333.383364 59.249252 333.383364 59.436091 C 333.383364 59.861909 333.292117 60.235586 333.105279 60.548431 C 332.91844 60.848242 332.63601 61.00032 332.253643 61.00032 L 318.284207 61.00032 C 317.471677 61.00032 316.950268 60.596227 316.719978 59.783697 L 313.934781 51.588874 C 313.795739 51.262993 313.665386 51.045739 313.535034 50.928422 C 313.417717 50.802415 313.200463 50.737238 312.874582 50.737238 L 297.758045 50.737238 C 297.188839 50.737238 296.836888 50.997943 296.697845 51.519353 L 293.773606 59.94012 C 293.48683 60.648368 292.917625 61.00032 292.070334 61.00032 Z M 309.30727 38.631843 C 309.82868 38.631843 310.09373 38.392863 310.09373 37.914904 C 310.09373 37.823658 310.045934 37.584678 309.950342 37.202311 L 305.674782 25.027394 C 305.579191 24.78407 305.435803 24.662407 305.240274 24.662407 C 305.053436 24.662407 304.914393 24.78407 304.818801 25.027394 L 300.47372 37.13279 C 300.378129 37.319628 300.334678 37.558608 300.334678 37.845383 C 300.334678 38.371138 300.617108 38.631843 301.186314 38.631843 Z M 340.648339 61.00032 C 340.079134 61.00032 339.627245 60.826517 339.292674 60.47891 C 338.966793 60.118268 338.806025 59.627274 338.806025 59.001583 L 338.806025 9.771815 C 338.806025 9.202609 338.923342 8.789827 339.153631 8.537812 C 339.396956 8.268417 339.779323 8.138064 340.300733 8.138064 L 360.253345 8.138064 C 360.870346 8.138064 361.304854 8.216276 361.556869 8.381389 C 361.826264 8.542157 362.056553 8.889763 362.252082 9.424208 L 369.66479 32.07077 C 369.803833 32.453138 369.964601 32.644321 370.151439 32.644321 C 370.303517 32.644321 370.446905 32.453138 370.585947 32.07077 L 377.212196 10.206323 C 377.585873 8.824587 378.2246 8.138064 379.128377 8.138064 L 399.724061 8.138064 C 400.580042 8.138064 401.010205 8.633404 401.010205 9.632772 L 401.010205 58.932061 C 401.010205 59.696795 400.832056 60.235586 400.471414 60.548431 C 400.110773 60.848242 399.532877 61.00032 398.733382 61.00032 L 386.675782 61.00032 C 385.967534 61.00032 385.480885 60.861277 385.215835 60.583192 C 384.959475 60.292072 384.833468 59.840183 384.833468 59.227527 L 384.833468 27.217315 C 384.833468 26.847983 384.742221 26.661145 384.555383 26.661145 C 384.312058 26.661145 384.120875 26.878399 383.981832 27.304217 L 373.718751 59.714176 C 373.379834 60.570157 372.814974 61.00032 372.011134 61.00032 L 364.53325 61.00032 C 363.672924 61.00032 363.099373 60.570157 362.812597 59.714176 L 352.566896 27.860387 C 352.414819 27.386773 352.245361 27.147794 352.058522 27.147794 C 351.815197 27.147794 351.693535 27.408499 351.693535 27.929908 L 351.693535 59.436091 C 351.693535 60.048747 351.602289 60.465875 351.41545 60.687474 C 351.232957 60.896038 350.802794 61.00032 350.129306 61.00032 Z M 340.648339 61.00032 " stroke="#ffdf2b" stroke-width="2.671879" stroke-opacity="1" stroke-miterlimit="4"/></g><g fill="#ffdf2b" fill-opacity="1"><g transform="translate(10.326785, 66.310298)"><g><path d="M 3.625 -50.15625 C 3.625 -50.664062 3.738281 -51.054688 3.96875 -51.328125 C 4.207031 -51.609375 4.535156 -51.75 4.953125 -51.75 L 18.203125 -51.75 C 19.035156 -51.75 19.453125 -51.265625 19.453125 -50.296875 L 19.453125 -12.421875 C 19.453125 -12.046875 19.507812 -11.785156 19.625 -11.640625 C 19.75 -11.503906 19.972656 -11.4375 20.296875 -11.4375 L 41.296875 -11.4375 C 42.359375 -11.4375 42.890625 -10.992188 42.890625 -10.109375 L 42.890625 -1.53125 C 42.890625 -1.070312 42.738281 -0.703125 42.4375 -0.421875 C 42.132812 -0.140625 41.707031 0 41.15625 0 L 5.515625 0 C 4.816406 0 4.328125 -0.140625 4.046875 -0.421875 C 3.765625 -0.703125 3.625 -1.144531 3.625 -1.75 Z M 3.625 -50.15625 "/></g></g></g><g fill="#ffdf2b" fill-opacity="1"><g transform="translate(55.171578, 66.310298)"><g><path d="M 27.265625 0.703125 C 22.203125 0.703125 17.773438 -0.378906 13.984375 -2.546875 C 10.191406 -4.710938 7.269531 -7.78125 5.21875 -11.75 C 3.175781 -15.726562 2.15625 -20.390625 2.15625 -25.734375 C 2.15625 -31.085938 3.191406 -35.773438 5.265625 -39.796875 C 7.335938 -43.816406 10.265625 -46.929688 14.046875 -49.140625 C 17.835938 -51.347656 22.242188 -52.453125 27.265625 -52.453125 C 32.242188 -52.453125 36.613281 -51.347656 40.375 -49.140625 C 44.144531 -46.929688 47.066406 -43.816406 49.140625 -39.796875 C 51.210938 -35.773438 52.25 -31.085938 52.25 -25.734375 C 52.25 -20.429688 51.222656 -15.78125 49.171875 -11.78125 C 47.128906 -7.789062 44.222656 -4.710938 40.453125 -2.546875 C 36.691406 -0.378906 32.296875 0.703125 27.265625 0.703125 Z M 27.265625 -10.1875 C 29.316406 -10.1875 30.945312 -10.6875 32.15625 -11.6875 C 33.363281 -12.6875 34.242188 -14.300781 34.796875 -16.53125 C 35.359375 -18.757812 35.640625 -21.757812 35.640625 -25.53125 C 35.640625 -31.289062 34.988281 -35.425781 33.6875 -37.9375 C 32.382812 -40.445312 30.242188 -41.703125 27.265625 -41.703125 C 24.242188 -41.703125 22.070312 -40.445312 20.75 -37.9375 C 19.425781 -35.425781 18.765625 -31.289062 18.765625 -25.53125 C 18.765625 -21.757812 19.039062 -18.757812 19.59375 -16.53125 C 20.15625 -14.300781 21.050781 -12.6875 22.28125 -11.6875 C 23.519531 -10.6875 25.179688 -10.1875 27.265625 -10.1875 Z M 27.265625 -10.1875 "/></g></g></g><g fill="#ffdf2b" fill-opacity="1"><g transform="translate(109.571182, 66.310298)"><g><path d="M 51.125 -51.75 C 51.957031 -51.75 52.375 -51.472656 52.375 -50.921875 C 52.375 -50.773438 52.285156 -50.519531 52.109375 -50.15625 L 35.78125 -23.78125 C 35.457031 -23.320312 35.257812 -22.8125 35.1875 -22.25 C 35.113281 -21.6875 35.078125 -20.664062 35.078125 -19.1875 L 35.078125 -2.015625 C 35.078125 -1.273438 34.890625 -0.753906 34.515625 -0.453125 C 34.148438 -0.148438 33.570312 0 32.78125 0 L 21.0625 0 C 20.363281 0 19.882812 -0.140625 19.625 -0.421875 C 19.375 -0.703125 19.25 -1.144531 19.25 -1.75 L 19.25 -20.09375 C 19.25 -20.738281 19.175781 -21.257812 19.03125 -21.65625 C 18.894531 -22.050781 18.644531 -22.550781 18.28125 -23.15625 L 1.953125 -49.796875 C 1.765625 -50.128906 1.671875 -50.429688 1.671875 -50.703125 C 1.671875 -51.398438 2.179688 -51.75 3.203125 -51.75 L 17.234375 -51.75 C 17.878906 -51.75 18.351562 -51.65625 18.65625 -51.46875 C 18.957031 -51.289062 19.269531 -50.898438 19.59375 -50.296875 L 28.171875 -34.8125 C 28.410156 -34.34375 28.597656 -34.109375 28.734375 -34.109375 C 28.960938 -34.109375 29.171875 -34.316406 29.359375 -34.734375 L 37.796875 -50.296875 C 38.078125 -50.898438 38.378906 -51.289062 38.703125 -51.46875 C 39.035156 -51.65625 39.523438 -51.75 40.171875 -51.75 Z M 51.125 -51.75 "/></g></g></g><g fill="#ffdf2b" fill-opacity="1"><g transform="translate(163.552325, 66.310298)"><g><path d="M 3 0 C 2.625 0 2.320312 -0.125 2.09375 -0.375 C 1.863281 -0.632812 1.75 -1 1.75 -1.46875 C 1.75 -1.789062 1.816406 -2.160156 1.953125 -2.578125 L 18.828125 -50.15625 C 19.066406 -50.757812 19.320312 -51.175781 19.59375 -51.40625 C 19.875 -51.632812 20.316406 -51.75 20.921875 -51.75 L 34.671875 -51.75 C 35.222656 -51.75 35.71875 -51.570312 36.15625 -51.21875 C 36.601562 -50.875 36.941406 -50.425781 37.171875 -49.875 L 53.921875 -2.375 C 54.015625 -2 54.0625 -1.71875 54.0625 -1.53125 C 54.0625 -1.113281 53.96875 -0.753906 53.78125 -0.453125 C 53.59375 -0.148438 53.3125 0 52.9375 0 L 39.265625 0 C 38.472656 0 37.960938 -0.394531 37.734375 -1.1875 L 35.015625 -9.203125 C 34.878906 -9.523438 34.75 -9.742188 34.625 -9.859375 C 34.507812 -9.984375 34.289062 -10.046875 33.96875 -10.046875 L 19.1875 -10.046875 C 18.625 -10.046875 18.273438 -9.789062 18.140625 -9.28125 L 15.28125 -1.046875 C 15 -0.347656 14.4375 0 13.59375 0 Z M 30.484375 -21.90625 C 30.992188 -21.90625 31.25 -22.132812 31.25 -22.59375 C 31.25 -22.6875 31.203125 -22.921875 31.109375 -23.296875 L 26.921875 -35.21875 C 26.828125 -35.457031 26.6875 -35.578125 26.5 -35.578125 C 26.3125 -35.578125 26.175781 -35.457031 26.09375 -35.21875 L 21.828125 -23.359375 C 21.734375 -23.179688 21.6875 -22.953125 21.6875 -22.671875 C 21.6875 -22.160156 21.96875 -21.90625 22.53125 -21.90625 Z M 30.484375 -21.90625 "/></g></g></g><g fill="#ffdf2b" fill-opacity="1"><g transform="translate(219.277048, 66.310298)"><g><path d="M 3.625 -50.15625 C 3.625 -50.664062 3.738281 -51.054688 3.96875 -51.328125 C 4.207031 -51.609375 4.535156 -51.75 4.953125 -51.75 L 18.203125 -51.75 C 19.035156 -51.75 19.453125 -51.265625 19.453125 -50.296875 L 19.453125 -12.421875 C 19.453125 -12.046875 19.507812 -11.785156 19.625 -11.640625 C 19.75 -11.503906 19.972656 -11.4375 20.296875 -11.4375 L 41.296875 -11.4375 C 42.359375 -11.4375 42.890625 -10.992188 42.890625 -10.109375 L 42.890625 -1.53125 C 42.890625 -1.070312 42.738281 -0.703125 42.4375 -0.421875 C 42.132812 -0.140625 41.707031 0 41.15625 0 L 5.515625 0 C 4.816406 0 4.328125 -0.140625 4.046875 -0.421875 C 3.765625 -0.703125 3.625 -1.144531 3.625 -1.75 Z M 3.625 -50.15625 "/></g></g></g><g fill="#ffdf2b" fill-opacity="1"><g transform="translate(264.121841, 66.310298)"><g><path d="M 1.953125 -50.15625 C 1.953125 -50.613281 2.101562 -50.992188 2.40625 -51.296875 C 2.707031 -51.597656 3.140625 -51.75 3.703125 -51.75 L 45.40625 -51.75 C 45.96875 -51.75 46.398438 -51.597656 46.703125 -51.296875 C 47.003906 -50.992188 47.15625 -50.613281 47.15625 -50.15625 L 47.15625 -41.84375 C 47.15625 -40.96875 46.640625 -40.53125 45.609375 -40.53125 L 33.265625 -40.53125 C 32.710938 -40.53125 32.4375 -40.296875 32.4375 -39.828125 L 32.4375 -1.53125 C 32.4375 -1.019531 32.316406 -0.632812 32.078125 -0.375 C 31.847656 -0.125 31.523438 0 31.109375 0 L 17.859375 0 C 17.015625 0 16.59375 -0.460938 16.59375 -1.390625 L 16.59375 -39.546875 C 16.59375 -40.203125 16.335938 -40.53125 15.828125 -40.53125 L 3.5625 -40.53125 C 2.488281 -40.53125 1.953125 -40.96875 1.953125 -41.84375 Z M 1.953125 -50.15625 "/></g></g></g><g fill="#ffdf2b" fill-opacity="1"><g transform="translate(313.220969, 66.310298)"><g><path d="M 51.125 -51.75 C 51.957031 -51.75 52.375 -51.472656 52.375 -50.921875 C 52.375 -50.773438 52.285156 -50.519531 52.109375 -50.15625 L 35.78125 -23.78125 C 35.457031 -23.320312 35.257812 -22.8125 35.1875 -22.25 C 35.113281 -21.6875 35.078125 -20.664062 35.078125 -19.1875 L 35.078125 -2.015625 C 35.078125 -1.273438 34.890625 -0.753906 34.515625 -0.453125 C 34.148438 -0.148438 33.570312 0 32.78125 0 L 21.0625 0 C 20.363281 0 19.882812 -0.140625 19.625 -0.421875 C 19.375 -0.703125 19.25 -1.144531 19.25 -1.75 L 19.25 -20.09375 C 19.25 -20.738281 19.175781 -21.257812 19.03125 -21.65625 C 18.894531 -22.050781 18.644531 -22.550781 18.28125 -23.15625 L 1.953125 -49.796875 C 1.765625 -50.128906 1.671875 -50.429688 1.671875 -50.703125 C 1.671875 -51.398438 2.179688 -51.75 3.203125 -51.75 L 17.234375 -51.75 C 17.878906 -51.75 18.351562 -51.65625 18.65625 -51.46875 C 18.957031 -51.289062 19.269531 -50.898438 19.59375 -50.296875 L 28.171875 -34.8125 C 28.410156 -34.34375 28.597656 -34.109375 28.734375 -34.109375 C 28.960938 -34.109375 29.171875 -34.316406 29.359375 -34.734375 L 37.796875 -50.296875 C 38.078125 -50.898438 38.378906 -51.289062 38.703125 -51.46875 C 39.035156 -51.65625 39.523438 -51.75 40.171875 -51.75 Z M 51.125 -51.75 "/></g></g></g></svg>