<svg xmlns="http://www.w3.org/2000/svg" xmlns:xlink="http://www.w3.org/1999/xlink" width="500" zoomAndPan="magnify" viewBox="0 0 375 225" height="300" preserveAspectRatio="xMidYMid meet" version="1.0"><defs><g/></defs><g fill="#0057ff" fill-opacity="0.302"><g transform="translate(10.35125, 95.278036)"><g><path d="M 24.84375 -42.8125 L 24.84375 -62.359375 L 15.859375 -62.359375 L 15.859375 -38.046875 Z M 15.859375 0 L 4.234375 0 L 4.234375 -73.46875 L 26.953125 -73.46875 C 29.554688 -73.46875 31.789062 -72.5 33.65625 -70.5625 C 35.53125 -68.625 36.46875 -66.242188 36.46875 -63.421875 L 36.46875 -35.625 L 15.859375 -25.046875 Z M 15.859375 0 "/></g></g></g><g fill="#0057ff" fill-opacity="0.302"><g transform="translate(49.985515, 95.278036)"><g><path d="M 30.65625 0 L 18.5 -27.484375 L 15.859375 -26.109375 L 15.859375 0 L 4.234375 0 L 4.234375 -73.46875 L 26.953125 -73.46875 C 29.554688 -73.46875 31.789062 -72.5 33.65625 -70.5625 C 35.53125 -68.625 36.46875 -66.242188 36.46875 -63.421875 L 36.46875 -36.671875 L 28.75 -32.765625 L 43.34375 0 Z M 24.84375 -43.859375 L 24.84375 -62.359375 L 15.859375 -62.359375 L 15.859375 -39.109375 Z M 24.84375 -43.859375 "/></g></g></g><g fill="#0057ff" fill-opacity="0.302"><g transform="translate(90.676686, 95.278036)"><g><path d="M 36.46875 -63.421875 L 36.46875 -10.046875 C 36.46875 -7.222656 35.53125 -4.84375 33.65625 -2.90625 C 31.789062 -0.96875 29.554688 0 26.953125 0 L 13.734375 0 C 11.128906 0 8.894531 -0.984375 7.03125 -2.953125 C 5.164062 -4.929688 4.234375 -7.296875 4.234375 -10.046875 L 4.234375 -63.421875 C 4.234375 -66.242188 5.164062 -68.625 7.03125 -70.5625 C 8.894531 -72.5 11.128906 -73.46875 13.734375 -73.46875 L 26.953125 -73.46875 C 29.554688 -73.46875 31.789062 -72.5 33.65625 -70.5625 C 35.53125 -68.625 36.46875 -66.242188 36.46875 -63.421875 Z M 24.84375 -11.09375 L 24.84375 -62.359375 L 15.859375 -62.359375 L 15.859375 -11.09375 Z M 24.84375 -11.09375 "/></g></g></g><g fill="#0057ff" fill-opacity="0.302"><g transform="translate(131.367858, 95.278036)"><g><path d="M 30.65625 -68.078125 C 31.070312 -68.992188 31.671875 -69.835938 32.453125 -70.609375 C 34.285156 -72.515625 36.503906 -73.46875 39.109375 -73.46875 L 47.5625 -73.46875 C 50.175781 -73.46875 52.414062 -72.476562 54.28125 -70.5 C 56.144531 -68.53125 57.078125 -66.171875 57.078125 -63.421875 L 57.078125 0 L 45.453125 0 L 45.453125 -62.359375 L 36.46875 -62.359375 L 36.46875 0 L 24.84375 0 L 24.84375 -62.359375 L 15.859375 -62.359375 L 15.859375 0 L 4.234375 0 L 4.234375 -63.421875 C 4.234375 -66.242188 5.164062 -68.625 7.03125 -70.5625 C 8.894531 -72.5 11.128906 -73.46875 13.734375 -73.46875 L 22.203125 -73.46875 C 24.804688 -73.46875 27.0625 -72.476562 28.96875 -70.5 C 29.664062 -69.726562 30.226562 -68.921875 30.65625 -68.078125 Z M 30.65625 -68.078125 "/></g></g></g><g fill="#0057ff" fill-opacity="0.302"><g transform="translate(192.668854, 95.278036)"><g><path d="M 36.46875 -63.421875 L 36.46875 -10.046875 C 36.46875 -7.222656 35.53125 -4.84375 33.65625 -2.90625 C 31.789062 -0.96875 29.554688 0 26.953125 0 L 13.734375 0 C 11.128906 0 8.894531 -0.984375 7.03125 -2.953125 C 5.164062 -4.929688 4.234375 -7.296875 4.234375 -10.046875 L 4.234375 -63.421875 C 4.234375 -66.242188 5.164062 -68.625 7.03125 -70.5625 C 8.894531 -72.5 11.128906 -73.46875 13.734375 -73.46875 L 26.953125 -73.46875 C 29.554688 -73.46875 31.789062 -72.5 33.65625 -70.5625 C 35.53125 -68.625 36.46875 -66.242188 36.46875 -63.421875 Z M 24.84375 -11.09375 L 24.84375 -62.359375 L 15.859375 -62.359375 L 15.859375 -11.09375 Z M 24.84375 -11.09375 "/></g></g></g><g fill="#0057ff" fill-opacity="0.302"><g transform="translate(233.360015, 95.278036)"><g><path d="M 13.21875 0 L 13.21875 -62.359375 L 1.578125 -62.359375 L 1.578125 -73.46875 L 36.46875 -73.46875 L 36.46875 -62.359375 L 24.84375 -62.359375 L 24.84375 0 Z M 13.21875 0 "/></g></g></g><g fill="#0057ff" fill-opacity="0.302"><g transform="translate(271.408918, 95.278036)"><g><path d="M 4.234375 0 L 4.234375 -73.46875 L 15.859375 -73.46875 L 15.859375 0 Z M 4.234375 0 "/></g></g></g><g fill="#0057ff" fill-opacity="0.302"><g transform="translate(291.490277, 95.278036)"><g><path d="M 36.46875 -63.421875 L 36.46875 -10.046875 C 36.46875 -7.222656 35.53125 -4.84375 33.65625 -2.90625 C 31.789062 -0.96875 29.554688 0 26.953125 0 L 13.734375 0 C 11.128906 0 8.894531 -0.984375 7.03125 -2.953125 C 5.164062 -4.929688 4.234375 -7.296875 4.234375 -10.046875 L 4.234375 -63.421875 C 4.234375 -66.242188 5.164062 -68.625 7.03125 -70.5625 C 8.894531 -72.5 11.128906 -73.46875 13.734375 -73.46875 L 26.953125 -73.46875 C 29.554688 -73.46875 31.789062 -72.5 33.65625 -70.5625 C 35.53125 -68.625 36.46875 -66.242188 36.46875 -63.421875 Z M 24.84375 -11.09375 L 24.84375 -62.359375 L 15.859375 -62.359375 L 15.859375 -11.09375 Z M 24.84375 -11.09375 "/></g></g></g><g fill="#0057ff" fill-opacity="0.302"><g transform="translate(332.181437, 95.278036)"><g><path d="M 15.859375 0 L 4.234375 0 L 4.234375 -73.46875 L 15.859375 -73.46875 L 15.859375 -68.078125 C 16.273438 -68.992188 16.835938 -69.835938 17.546875 -70.609375 C 19.453125 -72.515625 21.707031 -73.46875 24.3125 -73.46875 L 26.953125 -73.46875 C 29.554688 -73.46875 31.789062 -72.5 33.65625 -70.5625 C 35.53125 -68.625 36.46875 -66.242188 36.46875 -63.421875 L 36.46875 0 L 24.84375 0 L 24.84375 -62.359375 L 15.859375 -62.359375 Z M 15.859375 0 "/></g></g></g><g fill="#0057ff" fill-opacity="0.502"><g transform="translate(6.868984, 92.65396)"><g><path d="M 24.84375 -42.8125 L 24.84375 -62.359375 L 15.859375 -62.359375 L 15.859375 -38.046875 Z M 15.859375 0 L 4.234375 0 L 4.234375 -73.46875 L 26.953125 -73.46875 C 29.554688 -73.46875 31.789062 -72.5 33.65625 -70.5625 C 35.53125 -68.625 36.46875 -66.242188 36.46875 -63.421875 L 36.46875 -35.625 L 15.859375 -25.046875 Z M 15.859375 0 "/></g></g></g><g fill="#0057ff" fill-opacity="0.502"><g transform="translate(46.503249, 92.65396)"><g><path d="M 30.65625 0 L 18.5 -27.484375 L 15.859375 -26.109375 L 15.859375 0 L 4.234375 0 L 4.234375 -73.46875 L 26.953125 -73.46875 C 29.554688 -73.46875 31.789062 -72.5 33.65625 -70.5625 C 35.53125 -68.625 36.46875 -66.242188 36.46875 -63.421875 L 36.46875 -36.671875 L 28.75 -32.765625 L 43.34375 0 Z M 24.84375 -43.859375 L 24.84375 -62.359375 L 15.859375 -62.359375 L 15.859375 -39.109375 Z M 24.84375 -43.859375 "/></g></g></g><g fill="#0057ff" fill-opacity="0.502"><g transform="translate(87.194421, 92.65396)"><g><path d="M 36.46875 -63.421875 L 36.46875 -10.046875 C 36.46875 -7.222656 35.53125 -4.84375 33.65625 -2.90625 C 31.789062 -0.96875 29.554688 0 26.953125 0 L 13.734375 0 C 11.128906 0 8.894531 -0.984375 7.03125 -2.953125 C 5.164062 -4.929688 4.234375 -7.296875 4.234375 -10.046875 L 4.234375 -63.421875 C 4.234375 -66.242188 5.164062 -68.625 7.03125 -70.5625 C 8.894531 -72.5 11.128906 -73.46875 13.734375 -73.46875 L 26.953125 -73.46875 C 29.554688 -73.46875 31.789062 -72.5 33.65625 -70.5625 C 35.53125 -68.625 36.46875 -66.242188 36.46875 -63.421875 Z M 24.84375 -11.09375 L 24.84375 -62.359375 L 15.859375 -62.359375 L 15.859375 -11.09375 Z M 24.84375 -11.09375 "/></g></g></g><g fill="#0057ff" fill-opacity="0.502"><g transform="translate(127.885592, 92.65396)"><g><path d="M 30.65625 -68.078125 C 31.070312 -68.992188 31.671875 -69.835938 32.453125 -70.609375 C 34.285156 -72.515625 36.503906 -73.46875 39.109375 -73.46875 L 47.5625 -73.46875 C 50.175781 -73.46875 52.414062 -72.476562 54.28125 -70.5 C 56.144531 -68.53125 57.078125 -66.171875 57.078125 -63.421875 L 57.078125 0 L 45.453125 0 L 45.453125 -62.359375 L 36.46875 -62.359375 L 36.46875 0 L 24.84375 0 L 24.84375 -62.359375 L 15.859375 -62.359375 L 15.859375 0 L 4.234375 0 L 4.234375 -63.421875 C 4.234375 -66.242188 5.164062 -68.625 7.03125 -70.5625 C 8.894531 -72.5 11.128906 -73.46875 13.734375 -73.46875 L 22.203125 -73.46875 C 24.804688 -73.46875 27.0625 -72.476562 28.96875 -70.5 C 29.664062 -69.726562 30.226562 -68.921875 30.65625 -68.078125 Z M 30.65625 -68.078125 "/></g></g></g><g fill="#0057ff" fill-opacity="0.502"><g transform="translate(189.186589, 92.65396)"><g><path d="M 36.46875 -63.421875 L 36.46875 -10.046875 C 36.46875 -7.222656 35.53125 -4.84375 33.65625 -2.90625 C 31.789062 -0.96875 29.554688 0 26.953125 0 L 13.734375 0 C 11.128906 0 8.894531 -0.984375 7.03125 -2.953125 C 5.164062 -4.929688 4.234375 -7.296875 4.234375 -10.046875 L 4.234375 -63.421875 C 4.234375 -66.242188 5.164062 -68.625 7.03125 -70.5625 C 8.894531 -72.5 11.128906 -73.46875 13.734375 -73.46875 L 26.953125 -73.46875 C 29.554688 -73.46875 31.789062 -72.5 33.65625 -70.5625 C 35.53125 -68.625 36.46875 -66.242188 36.46875 -63.421875 Z M 24.84375 -11.09375 L 24.84375 -62.359375 L 15.859375 -62.359375 L 15.859375 -11.09375 Z M 24.84375 -11.09375 "/></g></g></g><g fill="#0057ff" fill-opacity="0.502"><g transform="translate(229.877749, 92.65396)"><g><path d="M 13.21875 0 L 13.21875 -62.359375 L 1.578125 -62.359375 L 1.578125 -73.46875 L 36.46875 -73.46875 L 36.46875 -62.359375 L 24.84375 -62.359375 L 24.84375 0 Z M 13.21875 0 "/></g></g></g><g fill="#0057ff" fill-opacity="0.502"><g transform="translate(267.926652, 92.65396)"><g><path d="M 4.234375 0 L 4.234375 -73.46875 L 15.859375 -73.46875 L 15.859375 0 Z M 4.234375 0 "/></g></g></g><g fill="#0057ff" fill-opacity="0.502"><g transform="translate(288.008011, 92.65396)"><g><path d="M 36.46875 -63.421875 L 36.46875 -10.046875 C 36.46875 -7.222656 35.53125 -4.84375 33.65625 -2.90625 C 31.789062 -0.96875 29.554688 0 26.953125 0 L 13.734375 0 C 11.128906 0 8.894531 -0.984375 7.03125 -2.953125 C 5.164062 -4.929688 4.234375 -7.296875 4.234375 -10.046875 L 4.234375 -63.421875 C 4.234375 -66.242188 5.164062 -68.625 7.03125 -70.5625 C 8.894531 -72.5 11.128906 -73.46875 13.734375 -73.46875 L 26.953125 -73.46875 C 29.554688 -73.46875 31.789062 -72.5 33.65625 -70.5625 C 35.53125 -68.625 36.46875 -66.242188 36.46875 -63.421875 Z M 24.84375 -11.09375 L 24.84375 -62.359375 L 15.859375 -62.359375 L 15.859375 -11.09375 Z M 24.84375 -11.09375 "/></g></g></g><g fill="#0057ff" fill-opacity="0.502"><g transform="translate(328.699171, 92.65396)"><g><path d="M 15.859375 0 L 4.234375 0 L 4.234375 -73.46875 L 15.859375 -73.46875 L 15.859375 -68.078125 C 16.273438 -68.992188 16.835938 -69.835938 17.546875 -70.609375 C 19.453125 -72.515625 21.707031 -73.46875 24.3125 -73.46875 L 26.953125 -73.46875 C 29.554688 -73.46875 31.789062 -72.5 33.65625 -70.5625 C 35.53125 -68.625 36.46875 -66.242188 36.46875 -63.421875 L 36.46875 0 L 24.84375 0 L 24.84375 -62.359375 L 15.859375 -62.359375 Z M 15.859375 0 "/></g></g></g><g fill="#ffde59" fill-opacity="1"><g transform="translate(3.386719, 90.029885)"><g><path d="M 24.84375 -42.8125 L 24.84375 -62.359375 L 15.859375 -62.359375 L 15.859375 -38.046875 Z M 15.859375 0 L 4.234375 0 L 4.234375 -73.46875 L 26.953125 -73.46875 C 29.554688 -73.46875 31.789062 -72.5 33.65625 -70.5625 C 35.53125 -68.625 36.46875 -66.242188 36.46875 -63.421875 L 36.46875 -35.625 L 15.859375 -25.046875 Z M 15.859375 0 "/></g></g></g><g fill="#ffde59" fill-opacity="1"><g transform="translate(43.020983, 90.029885)"><g><path d="M 30.65625 0 L 18.5 -27.484375 L 15.859375 -26.109375 L 15.859375 0 L 4.234375 0 L 4.234375 -73.46875 L 26.953125 -73.46875 C 29.554688 -73.46875 31.789062 -72.5 33.65625 -70.5625 C 35.53125 -68.625 36.46875 -66.242188 36.46875 -63.421875 L 36.46875 -36.671875 L 28.75 -32.765625 L 43.34375 0 Z M 24.84375 -43.859375 L 24.84375 -62.359375 L 15.859375 -62.359375 L 15.859375 -39.109375 Z M 24.84375 -43.859375 "/></g></g></g><g fill="#ffde59" fill-opacity="1"><g transform="translate(83.712155, 90.029885)"><g><path d="M 36.46875 -63.421875 L 36.46875 -10.046875 C 36.46875 -7.222656 35.53125 -4.84375 33.65625 -2.90625 C 31.789062 -0.96875 29.554688 0 26.953125 0 L 13.734375 0 C 11.128906 0 8.894531 -0.984375 7.03125 -2.953125 C 5.164062 -4.929688 4.234375 -7.296875 4.234375 -10.046875 L 4.234375 -63.421875 C 4.234375 -66.242188 5.164062 -68.625 7.03125 -70.5625 C 8.894531 -72.5 11.128906 -73.46875 13.734375 -73.46875 L 26.953125 -73.46875 C 29.554688 -73.46875 31.789062 -72.5 33.65625 -70.5625 C 35.53125 -68.625 36.46875 -66.242188 36.46875 -63.421875 Z M 24.84375 -11.09375 L 24.84375 -62.359375 L 15.859375 -62.359375 L 15.859375 -11.09375 Z M 24.84375 -11.09375 "/></g></g></g><g fill="#ffde59" fill-opacity="1"><g transform="translate(124.403327, 90.029885)"><g><path d="M 30.65625 -68.078125 C 31.070312 -68.992188 31.671875 -69.835938 32.453125 -70.609375 C 34.285156 -72.515625 36.503906 -73.46875 39.109375 -73.46875 L 47.5625 -73.46875 C 50.175781 -73.46875 52.414062 -72.476562 54.28125 -70.5 C 56.144531 -68.53125 57.078125 -66.171875 57.078125 -63.421875 L 57.078125 0 L 45.453125 0 L 45.453125 -62.359375 L 36.46875 -62.359375 L 36.46875 0 L 24.84375 0 L 24.84375 -62.359375 L 15.859375 -62.359375 L 15.859375 0 L 4.234375 0 L 4.234375 -63.421875 C 4.234375 -66.242188 5.164062 -68.625 7.03125 -70.5625 C 8.894531 -72.5 11.128906 -73.46875 13.734375 -73.46875 L 22.203125 -73.46875 C 24.804688 -73.46875 27.0625 -72.476562 28.96875 -70.5 C 29.664062 -69.726562 30.226562 -68.921875 30.65625 -68.078125 Z M 30.65625 -68.078125 "/></g></g></g><g fill="#ffde59" fill-opacity="1"><g transform="translate(185.704323, 90.029885)"><g><path d="M 36.46875 -63.421875 L 36.46875 -10.046875 C 36.46875 -7.222656 35.53125 -4.84375 33.65625 -2.90625 C 31.789062 -0.96875 29.554688 0 26.953125 0 L 13.734375 0 C 11.128906 0 8.894531 -0.984375 7.03125 -2.953125 C 5.164062 -4.929688 4.234375 -7.296875 4.234375 -10.046875 L 4.234375 -63.421875 C 4.234375 -66.242188 5.164062 -68.625 7.03125 -70.5625 C 8.894531 -72.5 11.128906 -73.46875 13.734375 -73.46875 L 26.953125 -73.46875 C 29.554688 -73.46875 31.789062 -72.5 33.65625 -70.5625 C 35.53125 -68.625 36.46875 -66.242188 36.46875 -63.421875 Z M 24.84375 -11.09375 L 24.84375 -62.359375 L 15.859375 -62.359375 L 15.859375 -11.09375 Z M 24.84375 -11.09375 "/></g></g></g><g fill="#ffde59" fill-opacity="1"><g transform="translate(226.395483, 90.029885)"><g><path d="M 13.21875 0 L 13.21875 -62.359375 L 1.578125 -62.359375 L 1.578125 -73.46875 L 36.46875 -73.46875 L 36.46875 -62.359375 L 24.84375 -62.359375 L 24.84375 0 Z M 13.21875 0 "/></g></g></g><g fill="#ffde59" fill-opacity="1"><g transform="translate(264.444386, 90.029885)"><g><path d="M 4.234375 0 L 4.234375 -73.46875 L 15.859375 -73.46875 L 15.859375 0 Z M 4.234375 0 "/></g></g></g><g fill="#ffde59" fill-opacity="1"><g transform="translate(284.525745, 90.029885)"><g><path d="M 36.46875 -63.421875 L 36.46875 -10.046875 C 36.46875 -7.222656 35.53125 -4.84375 33.65625 -2.90625 C 31.789062 -0.96875 29.554688 0 26.953125 0 L 13.734375 0 C 11.128906 0 8.894531 -0.984375 7.03125 -2.953125 C 5.164062 -4.929688 4.234375 -7.296875 4.234375 -10.046875 L 4.234375 -63.421875 C 4.234375 -66.242188 5.164062 -68.625 7.03125 -70.5625 C 8.894531 -72.5 11.128906 -73.46875 13.734375 -73.46875 L 26.953125 -73.46875 C 29.554688 -73.46875 31.789062 -72.5 33.65625 -70.5625 C 35.53125 -68.625 36.46875 -66.242188 36.46875 -63.421875 Z M 24.84375 -11.09375 L 24.84375 -62.359375 L 15.859375 -62.359375 L 15.859375 -11.09375 Z M 24.84375 -11.09375 "/></g></g></g><g fill="#ffde59" fill-opacity="1"><g transform="translate(325.216906, 90.029885)"><g><path d="M 15.859375 0 L 4.234375 0 L 4.234375 -73.46875 L 15.859375 -73.46875 L 15.859375 -68.078125 C 16.273438 -68.992188 16.835938 -69.835938 17.546875 -70.609375 C 19.453125 -72.515625 21.707031 -73.46875 24.3125 -73.46875 L 26.953125 -73.46875 C 29.554688 -73.46875 31.789062 -72.5 33.65625 -70.5625 C 35.53125 -68.625 36.46875 -66.242188 36.46875 -63.421875 L 36.46875 0 L 24.84375 0 L 24.84375 -62.359375 L 15.859375 -62.359375 Z M 15.859375 0 "/></g></g></g><g fill="#0057ff" fill-opacity="0.302"><g transform="translate(39.304651, 189.355922)"><g><path d="M 23.53125 -40.546875 L 23.53125 -59.078125 L 15.015625 -59.078125 L 15.015625 -36.046875 Z M 15.015625 0 L 4 0 L 4 -69.59375 L 25.53125 -69.59375 C 28 -69.59375 30.117188 -68.671875 31.890625 -66.828125 C 33.660156 -64.992188 34.546875 -62.742188 34.546875 -60.078125 L 34.546875 -33.734375 L 15.015625 -23.734375 Z M 15.015625 0 "/></g></g></g><g fill="#0057ff" fill-opacity="0.302"><g transform="translate(76.851547, 189.355922)"><g><path d="M 29.03125 0 L 17.515625 -26.03125 L 15.015625 -24.734375 L 15.015625 0 L 4 0 L 4 -69.59375 L 25.53125 -69.59375 C 28 -69.59375 30.117188 -68.671875 31.890625 -66.828125 C 33.660156 -64.992188 34.546875 -62.742188 34.546875 -60.078125 L 34.546875 -34.75 L 27.234375 -31.03125 L 41.046875 0 Z M 23.53125 -41.546875 L 23.53125 -59.078125 L 15.015625 -59.078125 L 15.015625 -37.046875 Z M 23.53125 -41.546875 "/></g></g></g><g fill="#0057ff" fill-opacity="0.302"><g transform="translate(115.399699, 189.355922)"><g><path d="M 34.546875 -60.078125 L 34.546875 -9.515625 C 34.546875 -6.835938 33.660156 -4.582031 31.890625 -2.75 C 30.117188 -0.914062 28 0 25.53125 0 L 13.015625 0 C 10.546875 0 8.425781 -0.929688 6.65625 -2.796875 C 4.882812 -4.671875 4 -6.910156 4 -9.515625 L 4 -60.078125 C 4 -62.742188 4.882812 -64.992188 6.65625 -66.828125 C 8.425781 -68.671875 10.546875 -69.59375 13.015625 -69.59375 L 25.53125 -69.59375 C 28 -69.59375 30.117188 -68.671875 31.890625 -66.828125 C 33.660156 -64.992188 34.546875 -62.742188 34.546875 -60.078125 Z M 23.53125 -10.515625 L 23.53125 -59.078125 L 15.015625 -59.078125 L 15.015625 -10.515625 Z M 23.53125 -10.515625 "/></g></g></g><g fill="#0057ff" fill-opacity="0.302"><g transform="translate(153.94785, 189.355922)"><g><path d="M 4 0 L 4 -69.59375 L 25.53125 -69.59375 C 28 -69.59375 30.117188 -68.671875 31.890625 -66.828125 C 33.660156 -64.992188 34.546875 -62.742188 34.546875 -60.078125 L 34.546875 -9.515625 C 34.546875 -6.835938 33.660156 -4.582031 31.890625 -2.75 C 30.117188 -0.914062 28 0 25.53125 0 Z M 23.53125 -10.515625 L 23.53125 -59.078125 L 15.015625 -59.078125 L 15.015625 -10.515625 Z M 23.53125 -10.515625 "/></g></g></g><g fill="#0057ff" fill-opacity="0.302"><g transform="translate(192.496001, 189.355922)"><g><path d="M 34.546875 -69.59375 L 34.546875 -9.515625 C 34.546875 -6.835938 33.660156 -4.582031 31.890625 -2.75 C 30.117188 -0.914062 28 0 25.53125 0 L 13.015625 0 C 10.546875 0 8.425781 -0.929688 6.65625 -2.796875 C 4.882812 -4.671875 4 -6.910156 4 -9.515625 L 4 -69.59375 L 15.015625 -69.59375 L 15.015625 -10.515625 L 23.53125 -10.515625 L 23.53125 -69.59375 Z M 34.546875 -69.59375 "/></g></g></g><g fill="#0057ff" fill-opacity="0.302"><g transform="translate(231.044152, 189.355922)"><g><path d="M 23.53125 -19.03125 L 34.546875 -24.53125 L 34.546875 -9.515625 C 34.546875 -6.835938 33.660156 -4.582031 31.890625 -2.75 C 30.117188 -0.914062 28 0 25.53125 0 L 13.015625 0 C 10.546875 0 8.425781 -0.929688 6.65625 -2.796875 C 4.882812 -4.671875 4 -6.910156 4 -9.515625 L 4 -60.078125 C 4 -62.742188 4.882812 -64.992188 6.65625 -66.828125 C 8.425781 -68.671875 10.546875 -69.59375 13.015625 -69.59375 L 25.53125 -69.59375 C 28 -69.59375 30.117188 -68.671875 31.890625 -66.828125 C 33.660156 -64.992188 34.546875 -62.742188 34.546875 -60.078125 L 34.546875 -54.0625 L 23.53125 -48.5625 L 23.53125 -59.078125 L 15.015625 -59.078125 L 15.015625 -10.515625 L 23.53125 -10.515625 Z M 23.53125 -19.03125 "/></g></g></g><g fill="#0057ff" fill-opacity="0.302"><g transform="translate(268.591049, 189.355922)"><g><path d="M 12.515625 0 L 12.515625 -59.078125 L 1.5 -59.078125 L 1.5 -69.59375 L 34.546875 -69.59375 L 34.546875 -59.078125 L 23.53125 -59.078125 L 23.53125 0 Z M 12.515625 0 "/></g></g></g><g fill="#0057ff" fill-opacity="0.302"><g transform="translate(304.636091, 189.355922)"><g><path d="M 4 -60.078125 C 4 -62.816406 4.882812 -65.085938 6.65625 -66.890625 C 8.425781 -68.691406 10.546875 -69.59375 13.015625 -69.59375 L 25.53125 -69.59375 C 28 -69.59375 30.117188 -68.671875 31.890625 -66.828125 C 33.660156 -64.992188 34.546875 -62.742188 34.546875 -60.078125 L 34.546875 -57.078125 L 23.53125 -51.5625 L 23.53125 -59.078125 L 15.015625 -59.078125 L 15.015625 -40.546875 L 34.546875 -50.5625 L 34.546875 -9.515625 C 34.546875 -6.910156 33.660156 -4.671875 31.890625 -2.796875 C 30.117188 -0.929688 28 0 25.53125 0 L 13.015625 0 C 10.546875 0 8.425781 -0.914062 6.65625 -2.75 C 4.882812 -4.582031 4 -6.835938 4 -9.515625 L 4 -16.015625 L 15.015625 -21.53125 L 15.015625 -10.515625 L 23.53125 -10.515625 L 23.53125 -32.546875 L 4 -22.53125 Z M 4 -60.078125 "/></g></g></g><g fill="#0057ff" fill-opacity="0.502"><g transform="translate(36.00584, 186.870091)"><g><path d="M 23.53125 -40.546875 L 23.53125 -59.078125 L 15.015625 -59.078125 L 15.015625 -36.046875 Z M 15.015625 0 L 4 0 L 4 -69.59375 L 25.53125 -69.59375 C 28 -69.59375 30.117188 -68.671875 31.890625 -66.828125 C 33.660156 -64.992188 34.546875 -62.742188 34.546875 -60.078125 L 34.546875 -33.734375 L 15.015625 -23.734375 Z M 15.015625 0 "/></g></g></g><g fill="#0057ff" fill-opacity="0.502"><g transform="translate(73.552737, 186.870091)"><g><path d="M 29.03125 0 L 17.515625 -26.03125 L 15.015625 -24.734375 L 15.015625 0 L 4 0 L 4 -69.59375 L 25.53125 -69.59375 C 28 -69.59375 30.117188 -68.671875 31.890625 -66.828125 C 33.660156 -64.992188 34.546875 -62.742188 34.546875 -60.078125 L 34.546875 -34.75 L 27.234375 -31.03125 L 41.046875 0 Z M 23.53125 -41.546875 L 23.53125 -59.078125 L 15.015625 -59.078125 L 15.015625 -37.046875 Z M 23.53125 -41.546875 "/></g></g></g><g fill="#0057ff" fill-opacity="0.502"><g transform="translate(112.100888, 186.870091)"><g><path d="M 34.546875 -60.078125 L 34.546875 -9.515625 C 34.546875 -6.835938 33.660156 -4.582031 31.890625 -2.75 C 30.117188 -0.914062 28 0 25.53125 0 L 13.015625 0 C 10.546875 0 8.425781 -0.929688 6.65625 -2.796875 C 4.882812 -4.671875 4 -6.910156 4 -9.515625 L 4 -60.078125 C 4 -62.742188 4.882812 -64.992188 6.65625 -66.828125 C 8.425781 -68.671875 10.546875 -69.59375 13.015625 -69.59375 L 25.53125 -69.59375 C 28 -69.59375 30.117188 -68.671875 31.890625 -66.828125 C 33.660156 -64.992188 34.546875 -62.742188 34.546875 -60.078125 Z M 23.53125 -10.515625 L 23.53125 -59.078125 L 15.015625 -59.078125 L 15.015625 -10.515625 Z M 23.53125 -10.515625 "/></g></g></g><g fill="#0057ff" fill-opacity="0.502"><g transform="translate(150.649039, 186.870091)"><g><path d="M 4 0 L 4 -69.59375 L 25.53125 -69.59375 C 28 -69.59375 30.117188 -68.671875 31.890625 -66.828125 C 33.660156 -64.992188 34.546875 -62.742188 34.546875 -60.078125 L 34.546875 -9.515625 C 34.546875 -6.835938 33.660156 -4.582031 31.890625 -2.75 C 30.117188 -0.914062 28 0 25.53125 0 Z M 23.53125 -10.515625 L 23.53125 -59.078125 L 15.015625 -59.078125 L 15.015625 -10.515625 Z M 23.53125 -10.515625 "/></g></g></g><g fill="#0057ff" fill-opacity="0.502"><g transform="translate(189.19719, 186.870091)"><g><path d="M 34.546875 -69.59375 L 34.546875 -9.515625 C 34.546875 -6.835938 33.660156 -4.582031 31.890625 -2.75 C 30.117188 -0.914062 28 0 25.53125 0 L 13.015625 0 C 10.546875 0 8.425781 -0.929688 6.65625 -2.796875 C 4.882812 -4.671875 4 -6.910156 4 -9.515625 L 4 -69.59375 L 15.015625 -69.59375 L 15.015625 -10.515625 L 23.53125 -10.515625 L 23.53125 -69.59375 Z M 34.546875 -69.59375 "/></g></g></g><g fill="#0057ff" fill-opacity="0.502"><g transform="translate(227.745342, 186.870091)"><g><path d="M 23.53125 -19.03125 L 34.546875 -24.53125 L 34.546875 -9.515625 C 34.546875 -6.835938 33.660156 -4.582031 31.890625 -2.75 C 30.117188 -0.914062 28 0 25.53125 0 L 13.015625 0 C 10.546875 0 8.425781 -0.929688 6.65625 -2.796875 C 4.882812 -4.671875 4 -6.910156 4 -9.515625 L 4 -60.078125 C 4 -62.742188 4.882812 -64.992188 6.65625 -66.828125 C 8.425781 -68.671875 10.546875 -69.59375 13.015625 -69.59375 L 25.53125 -69.59375 C 28 -69.59375 30.117188 -68.671875 31.890625 -66.828125 C 33.660156 -64.992188 34.546875 -62.742188 34.546875 -60.078125 L 34.546875 -54.0625 L 23.53125 -48.5625 L 23.53125 -59.078125 L 15.015625 -59.078125 L 15.015625 -10.515625 L 23.53125 -10.515625 Z M 23.53125 -19.03125 "/></g></g></g><g fill="#0057ff" fill-opacity="0.502"><g transform="translate(265.292238, 186.870091)"><g><path d="M 12.515625 0 L 12.515625 -59.078125 L 1.5 -59.078125 L 1.5 -69.59375 L 34.546875 -69.59375 L 34.546875 -59.078125 L 23.53125 -59.078125 L 23.53125 0 Z M 12.515625 0 "/></g></g></g><g fill="#0057ff" fill-opacity="0.502"><g transform="translate(301.337281, 186.870091)"><g><path d="M 4 -60.078125 C 4 -62.816406 4.882812 -65.085938 6.65625 -66.890625 C 8.425781 -68.691406 10.546875 -69.59375 13.015625 -69.59375 L 25.53125 -69.59375 C 28 -69.59375 30.117188 -68.671875 31.890625 -66.828125 C 33.660156 -64.992188 34.546875 -62.742188 34.546875 -60.078125 L 34.546875 -57.078125 L 23.53125 -51.5625 L 23.53125 -59.078125 L 15.015625 -59.078125 L 15.015625 -40.546875 L 34.546875 -50.5625 L 34.546875 -9.515625 C 34.546875 -6.910156 33.660156 -4.671875 31.890625 -2.796875 C 30.117188 -0.929688 28 0 25.53125 0 L 13.015625 0 C 10.546875 0 8.425781 -0.914062 6.65625 -2.75 C 4.882812 -4.582031 4 -6.835938 4 -9.515625 L 4 -16.015625 L 15.015625 -21.53125 L 15.015625 -10.515625 L 23.53125 -10.515625 L 23.53125 -32.546875 L 4 -22.53125 Z M 4 -60.078125 "/></g></g></g><g fill="#ffffff" fill-opacity="1"><g transform="translate(32.70703, 184.384258)"><g><path d="M 23.53125 -40.546875 L 23.53125 -59.078125 L 15.015625 -59.078125 L 15.015625 -36.046875 Z M 15.015625 0 L 4 0 L 4 -69.59375 L 25.53125 -69.59375 C 28 -69.59375 30.117188 -68.671875 31.890625 -66.828125 C 33.660156 -64.992188 34.546875 -62.742188 34.546875 -60.078125 L 34.546875 -33.734375 L 15.015625 -23.734375 Z M 15.015625 0 "/></g></g></g><g fill="#ffffff" fill-opacity="1"><g transform="translate(70.253927, 184.384258)"><g><path d="M 29.03125 0 L 17.515625 -26.03125 L 15.015625 -24.734375 L 15.015625 0 L 4 0 L 4 -69.59375 L 25.53125 -69.59375 C 28 -69.59375 30.117188 -68.671875 31.890625 -66.828125 C 33.660156 -64.992188 34.546875 -62.742188 34.546875 -60.078125 L 34.546875 -34.75 L 27.234375 -31.03125 L 41.046875 0 Z M 23.53125 -41.546875 L 23.53125 -59.078125 L 15.015625 -59.078125 L 15.015625 -37.046875 Z M 23.53125 -41.546875 "/></g></g></g><g fill="#ffffff" fill-opacity="1"><g transform="translate(108.802078, 184.384258)"><g><path d="M 34.546875 -60.078125 L 34.546875 -9.515625 C 34.546875 -6.835938 33.660156 -4.582031 31.890625 -2.75 C 30.117188 -0.914062 28 0 25.53125 0 L 13.015625 0 C 10.546875 0 8.425781 -0.929688 6.65625 -2.796875 C 4.882812 -4.671875 4 -6.910156 4 -9.515625 L 4 -60.078125 C 4 -62.742188 4.882812 -64.992188 6.65625 -66.828125 C 8.425781 -68.671875 10.546875 -69.59375 13.015625 -69.59375 L 25.53125 -69.59375 C 28 -69.59375 30.117188 -68.671875 31.890625 -66.828125 C 33.660156 -64.992188 34.546875 -62.742188 34.546875 -60.078125 Z M 23.53125 -10.515625 L 23.53125 -59.078125 L 15.015625 -59.078125 L 15.015625 -10.515625 Z M 23.53125 -10.515625 "/></g></g></g><g fill="#ffffff" fill-opacity="1"><g transform="translate(147.350229, 184.384258)"><g><path d="M 4 0 L 4 -69.59375 L 25.53125 -69.59375 C 28 -69.59375 30.117188 -68.671875 31.890625 -66.828125 C 33.660156 -64.992188 34.546875 -62.742188 34.546875 -60.078125 L 34.546875 -9.515625 C 34.546875 -6.835938 33.660156 -4.582031 31.890625 -2.75 C 30.117188 -0.914062 28 0 25.53125 0 Z M 23.53125 -10.515625 L 23.53125 -59.078125 L 15.015625 -59.078125 L 15.015625 -10.515625 Z M 23.53125 -10.515625 "/></g></g></g><g fill="#ffffff" fill-opacity="1"><g transform="translate(185.89838, 184.384258)"><g><path d="M 34.546875 -69.59375 L 34.546875 -9.515625 C 34.546875 -6.835938 33.660156 -4.582031 31.890625 -2.75 C 30.117188 -0.914062 28 0 25.53125 0 L 13.015625 0 C 10.546875 0 8.425781 -0.929688 6.65625 -2.796875 C 4.882812 -4.671875 4 -6.910156 4 -9.515625 L 4 -69.59375 L 15.015625 -69.59375 L 15.015625 -10.515625 L 23.53125 -10.515625 L 23.53125 -69.59375 Z M 34.546875 -69.59375 "/></g></g></g><g fill="#ffffff" fill-opacity="1"><g transform="translate(224.446531, 184.384258)"><g><path d="M 23.53125 -19.03125 L 34.546875 -24.53125 L 34.546875 -9.515625 C 34.546875 -6.835938 33.660156 -4.582031 31.890625 -2.75 C 30.117188 -0.914062 28 0 25.53125 0 L 13.015625 0 C 10.546875 0 8.425781 -0.929688 6.65625 -2.796875 C 4.882812 -4.671875 4 -6.910156 4 -9.515625 L 4 -60.078125 C 4 -62.742188 4.882812 -64.992188 6.65625 -66.828125 C 8.425781 -68.671875 10.546875 -69.59375 13.015625 -69.59375 L 25.53125 -69.59375 C 28 -69.59375 30.117188 -68.671875 31.890625 -66.828125 C 33.660156 -64.992188 34.546875 -62.742188 34.546875 -60.078125 L 34.546875 -54.0625 L 23.53125 -48.5625 L 23.53125 -59.078125 L 15.015625 -59.078125 L 15.015625 -10.515625 L 23.53125 -10.515625 Z M 23.53125 -19.03125 "/></g></g></g><g fill="#ffffff" fill-opacity="1"><g transform="translate(261.993428, 184.384258)"><g><path d="M 12.515625 0 L 12.515625 -59.078125 L 1.5 -59.078125 L 1.5 -69.59375 L 34.546875 -69.59375 L 34.546875 -59.078125 L 23.53125 -59.078125 L 23.53125 0 Z M 12.515625 0 "/></g></g></g><g fill="#ffffff" fill-opacity="1"><g transform="translate(298.038471, 184.384258)"><g><path d="M 4 -60.078125 C 4 -62.816406 4.882812 -65.085938 6.65625 -66.890625 C 8.425781 -68.691406 10.546875 -69.59375 13.015625 -69.59375 L 25.53125 -69.59375 C 28 -69.59375 30.117188 -68.671875 31.890625 -66.828125 C 33.660156 -64.992188 34.546875 -62.742188 34.546875 -60.078125 L 34.546875 -57.078125 L 23.53125 -51.5625 L 23.53125 -59.078125 L 15.015625 -59.078125 L 15.015625 -40.546875 L 34.546875 -50.5625 L 34.546875 -9.515625 C 34.546875 -6.910156 33.660156 -4.671875 31.890625 -2.796875 C 30.117188 -0.929688 28 0 25.53125 0 L 13.015625 0 C 10.546875 0 8.425781 -0.914062 6.65625 -2.75 C 4.882812 -4.582031 4 -6.835938 4 -9.515625 L 4 -16.015625 L 15.015625 -21.53125 L 15.015625 -10.515625 L 23.53125 -10.515625 L 23.53125 -32.546875 L 4 -22.53125 Z M 4 -60.078125 "/></g></g></g></svg>