<svg xmlns="http://www.w3.org/2000/svg" xmlns:xlink="http://www.w3.org/1999/xlink" width="500" zoomAndPan="magnify" viewBox="0 0 375 199.499995" height="266" preserveAspectRatio="xMidYMid meet" version="1.0"><defs><g/></defs><g fill="#d32f23" fill-opacity="0.4196"><g transform="translate(26.799131, 102.186469)"><g><path d="M 27.1875 0 C 26.382812 0 25.914062 -0.429688 25.78125 -1.296875 L 22.875 -26.59375 C 22.875 -26.863281 22.773438 -27 22.578125 -27 C 22.304688 -27 22.171875 -26.828125 22.171875 -26.484375 L 19.0625 -1.5 C 19 -1.03125 18.816406 -0.660156 18.515625 -0.390625 C 18.210938 -0.128906 17.859375 0 17.453125 0 L 2 0 C 1.601562 0 1.285156 -0.128906 1.046875 -0.390625 C 0.816406 -0.660156 0.734375 -1.03125 0.796875 -1.5 L 9.03125 -68.734375 C 9.09375 -69.203125 9.273438 -69.566406 9.578125 -69.828125 C 9.878906 -70.097656 10.234375 -70.234375 10.640625 -70.234375 L 32.609375 -70.234375 C 37.960938 -70.234375 42.191406 -68.523438 45.296875 -65.109375 C 48.410156 -61.703125 49.96875 -57.191406 49.96875 -51.578125 C 49.96875 -49.972656 49.898438 -48.734375 49.765625 -47.859375 C 49.296875 -44.179688 48.257812 -40.882812 46.65625 -37.96875 C 45.050781 -35.0625 42.976562 -32.707031 40.4375 -30.90625 C 40.101562 -30.707031 40.003906 -30.472656 40.140625 -30.203125 L 44.453125 -1.703125 L 44.453125 -1.296875 C 44.453125 -0.898438 44.316406 -0.582031 44.046875 -0.34375 C 43.785156 -0.113281 43.453125 0 43.046875 0 Z M 25.984375 -54.078125 C 25.648438 -54.078125 25.484375 -53.910156 25.484375 -53.578125 L 23.984375 -41.84375 C 23.984375 -41.507812 24.148438 -41.34375 24.484375 -41.34375 L 25.78125 -41.34375 C 27.394531 -41.34375 28.753906 -42.046875 29.859375 -43.453125 C 30.960938 -44.859375 31.515625 -46.796875 31.515625 -49.265625 C 31.515625 -50.804688 31.144531 -51.992188 30.40625 -52.828125 C 29.664062 -53.660156 28.660156 -54.078125 27.390625 -54.078125 Z M 25.984375 -54.078125 "/></g></g></g><g fill="#d32f23" fill-opacity="0.4196"><g transform="translate(74.460578, 102.186469)"><g><path d="M 46.359375 -55.59375 C 46.296875 -55.125 46.113281 -54.753906 45.8125 -54.484375 C 45.507812 -54.210938 45.125 -54.078125 44.65625 -54.078125 L 25.984375 -54.078125 C 25.648438 -54.078125 25.484375 -53.910156 25.484375 -53.578125 L 24.28125 -43.75 C 24.144531 -43.414062 24.28125 -43.25 24.6875 -43.25 L 34.421875 -43.25 C 34.890625 -43.25 35.238281 -43.113281 35.46875 -42.84375 C 35.707031 -42.582031 35.789062 -42.21875 35.71875 -41.75 L 34.109375 -28.59375 C 33.910156 -27.59375 33.34375 -27.09375 32.40625 -27.09375 L 22.671875 -27.09375 C 22.335938 -27.09375 22.171875 -26.925781 22.171875 -26.59375 L 20.96875 -16.65625 C 20.832031 -16.320312 20.96875 -16.15625 21.375 -16.15625 L 40.03125 -16.15625 C 40.5 -16.15625 40.847656 -16.019531 41.078125 -15.75 C 41.316406 -15.488281 41.40625 -15.125 41.34375 -14.65625 L 39.734375 -1.5 C 39.671875 -1.03125 39.488281 -0.660156 39.1875 -0.390625 C 38.882812 -0.128906 38.5 0 38.03125 0 L 2 0 C 1.601562 0 1.285156 -0.128906 1.046875 -0.390625 C 0.816406 -0.660156 0.734375 -1.03125 0.796875 -1.5 L 9.03125 -68.734375 C 9.09375 -69.203125 9.273438 -69.566406 9.578125 -69.828125 C 9.878906 -70.097656 10.234375 -70.234375 10.640625 -70.234375 L 46.65625 -70.234375 C 47.125 -70.234375 47.472656 -70.097656 47.703125 -69.828125 C 47.941406 -69.566406 48.03125 -69.203125 47.96875 -68.734375 Z M 46.359375 -55.59375 "/></g></g></g><g fill="#d32f23" fill-opacity="0.4196"><g transform="translate(117.707064, 102.186469)"><g><path d="M 21.171875 0.796875 C 15.285156 0.796875 10.648438 -0.753906 7.265625 -3.859375 C 3.890625 -6.972656 2.203125 -11.207031 2.203125 -16.5625 C 2.203125 -17.15625 2.269531 -18.191406 2.40625 -19.671875 L 6.21875 -50.671875 C 6.957031 -56.890625 9.5 -61.835938 13.84375 -65.515625 C 18.195312 -69.203125 23.582031 -71.046875 30 -71.046875 C 35.820312 -71.046875 40.453125 -69.472656 43.890625 -66.328125 C 47.335938 -63.179688 49.0625 -58.929688 49.0625 -53.578125 C 49.0625 -52.847656 49 -51.8125 48.875 -50.46875 L 48.46875 -47.15625 C 48.269531 -46.15625 47.703125 -45.65625 46.765625 -45.65625 L 31.40625 -45.65625 C 30.9375 -45.65625 30.582031 -45.785156 30.34375 -46.046875 C 30.113281 -46.316406 30.035156 -46.6875 30.109375 -47.15625 L 30.609375 -50.671875 C 30.742188 -51.941406 30.578125 -52.960938 30.109375 -53.734375 C 29.640625 -54.503906 28.96875 -54.890625 28.09375 -54.890625 C 27.15625 -54.890625 26.351562 -54.503906 25.6875 -53.734375 C 25.019531 -52.960938 24.617188 -51.941406 24.484375 -50.671875 L 20.671875 -19.5625 C 20.535156 -18.289062 20.703125 -17.269531 21.171875 -16.5 C 21.640625 -15.738281 22.304688 -15.359375 23.171875 -15.359375 C 24.109375 -15.359375 24.894531 -15.738281 25.53125 -16.5 C 26.164062 -17.269531 26.550781 -18.289062 26.6875 -19.5625 L 27.390625 -24.578125 C 27.390625 -24.910156 27.222656 -25.078125 26.890625 -25.078125 L 26.09375 -25.078125 C 25.625 -25.078125 25.269531 -25.210938 25.03125 -25.484375 C 24.800781 -25.753906 24.71875 -26.125 24.78125 -26.59375 L 26.1875 -38.125 C 26.257812 -38.59375 26.441406 -38.960938 26.734375 -39.234375 C 27.035156 -39.503906 27.390625 -39.640625 27.796875 -39.640625 L 46.0625 -39.640625 C 46.53125 -39.640625 46.878906 -39.503906 47.109375 -39.234375 C 47.347656 -38.960938 47.429688 -38.59375 47.359375 -38.125 L 45.046875 -19.671875 C 44.316406 -13.441406 41.757812 -8.472656 37.375 -4.765625 C 33 -1.054688 27.597656 0.796875 21.171875 0.796875 Z M 21.171875 0.796875 "/></g></g></g><g fill="#d32f23" fill-opacity="0.4196"><g transform="translate(164.264774, 102.186469)"><g><path d="M 21.375 0.796875 C 15.625 0.796875 11.070312 -0.835938 7.71875 -4.109375 C 4.375 -7.390625 2.703125 -11.804688 2.703125 -17.359375 C 2.703125 -18.097656 2.769531 -19.269531 2.90625 -20.875 L 8.828125 -68.734375 C 8.898438 -69.203125 9.082031 -69.566406 9.375 -69.828125 C 9.675781 -70.097656 10.03125 -70.234375 10.4375 -70.234375 L 25.890625 -70.234375 C 26.285156 -70.234375 26.597656 -70.097656 26.828125 -69.828125 C 27.066406 -69.566406 27.15625 -69.203125 27.09375 -68.734375 L 21.078125 -19.0625 C 20.941406 -17.925781 21.070312 -17.023438 21.46875 -16.359375 C 21.875 -15.691406 22.507812 -15.359375 23.375 -15.359375 C 24.25 -15.359375 24.96875 -15.691406 25.53125 -16.359375 C 26.101562 -17.023438 26.457031 -17.925781 26.59375 -19.0625 L 32.71875 -68.734375 C 32.78125 -69.203125 32.941406 -69.566406 33.203125 -69.828125 C 33.472656 -70.097656 33.84375 -70.234375 34.3125 -70.234375 L 49.671875 -70.234375 C 50.140625 -70.234375 50.488281 -70.097656 50.71875 -69.828125 C 50.957031 -69.566406 51.039062 -69.203125 50.96875 -68.734375 L 45.046875 -20.875 C 44.515625 -16.59375 43.175781 -12.8125 41.03125 -9.53125 C 38.894531 -6.25 36.117188 -3.707031 32.703125 -1.90625 C 29.296875 -0.101562 25.519531 0.796875 21.375 0.796875 Z M 21.375 0.796875 "/></g></g></g><g fill="#d32f23" fill-opacity="0.4196"><g transform="translate(211.123508, 102.186469)"><g><path d="M 2 0 C 1.601562 0 1.285156 -0.128906 1.046875 -0.390625 C 0.816406 -0.660156 0.734375 -1.03125 0.796875 -1.5 L 9.03125 -68.734375 C 9.09375 -69.203125 9.273438 -69.566406 9.578125 -69.828125 C 9.878906 -70.097656 10.234375 -70.234375 10.640625 -70.234375 L 26.09375 -70.234375 C 26.488281 -70.234375 26.800781 -70.097656 27.03125 -69.828125 C 27.269531 -69.566406 27.359375 -69.203125 27.296875 -68.734375 L 20.96875 -16.65625 C 20.832031 -16.320312 20.96875 -16.15625 21.375 -16.15625 L 40.4375 -16.15625 C 40.90625 -16.15625 41.253906 -16.019531 41.484375 -15.75 C 41.722656 -15.488281 41.8125 -15.125 41.75 -14.65625 L 40.140625 -1.5 C 39.941406 -0.5 39.375 0 38.4375 0 Z M 2 0 "/></g></g></g><g fill="#d32f23" fill-opacity="0.4196"><g transform="translate(254.570676, 102.186469)"><g><path d="M 31.203125 0 C 30.265625 0 29.832031 -0.46875 29.90625 -1.40625 L 29.703125 -9.03125 C 29.765625 -9.164062 29.726562 -9.28125 29.59375 -9.375 C 29.46875 -9.476562 29.335938 -9.53125 29.203125 -9.53125 L 20.46875 -9.53125 C 20.132812 -9.53125 19.898438 -9.363281 19.765625 -9.03125 L 17.859375 -1.40625 C 17.660156 -0.46875 17.09375 0 16.15625 0 L 0.90625 0 C -0.101562 0 -0.472656 -0.535156 -0.203125 -1.609375 L 21.875 -68.9375 C 22.144531 -69.800781 22.75 -70.234375 23.6875 -70.234375 L 41.4375 -70.234375 C 42.375 -70.234375 42.878906 -69.800781 42.953125 -68.9375 L 48.46875 -1.609375 L 48.46875 -1.40625 C 48.46875 -0.46875 47.960938 0 46.953125 0 Z M 23.875 -24.484375 C 23.75 -24.148438 23.851562 -23.984375 24.1875 -23.984375 L 28.90625 -23.984375 C 29.101562 -23.984375 29.269531 -24.148438 29.40625 -24.484375 L 29 -43.046875 C 29 -43.316406 28.914062 -43.429688 28.75 -43.390625 C 28.582031 -43.359375 28.5 -43.242188 28.5 -43.046875 Z M 23.875 -24.484375 "/></g></g></g><g fill="#d32f23" fill-opacity="0.4196"><g transform="translate(306.24572, 102.186469)"><g><path d="M 27.1875 0 C 26.382812 0 25.914062 -0.429688 25.78125 -1.296875 L 22.875 -26.59375 C 22.875 -26.863281 22.773438 -27 22.578125 -27 C 22.304688 -27 22.171875 -26.828125 22.171875 -26.484375 L 19.0625 -1.5 C 19 -1.03125 18.816406 -0.660156 18.515625 -0.390625 C 18.210938 -0.128906 17.859375 0 17.453125 0 L 2 0 C 1.601562 0 1.285156 -0.128906 1.046875 -0.390625 C 0.816406 -0.660156 0.734375 -1.03125 0.796875 -1.5 L 9.03125 -68.734375 C 9.09375 -69.203125 9.273438 -69.566406 9.578125 -69.828125 C 9.878906 -70.097656 10.234375 -70.234375 10.640625 -70.234375 L 32.609375 -70.234375 C 37.960938 -70.234375 42.191406 -68.523438 45.296875 -65.109375 C 48.410156 -61.703125 49.96875 -57.191406 49.96875 -51.578125 C 49.96875 -49.972656 49.898438 -48.734375 49.765625 -47.859375 C 49.296875 -44.179688 48.257812 -40.882812 46.65625 -37.96875 C 45.050781 -35.0625 42.976562 -32.707031 40.4375 -30.90625 C 40.101562 -30.707031 40.003906 -30.472656 40.140625 -30.203125 L 44.453125 -1.703125 L 44.453125 -1.296875 C 44.453125 -0.898438 44.316406 -0.582031 44.046875 -0.34375 C 43.785156 -0.113281 43.453125 0 43.046875 0 Z M 25.984375 -54.078125 C 25.648438 -54.078125 25.484375 -53.910156 25.484375 -53.578125 L 23.984375 -41.84375 C 23.984375 -41.507812 24.148438 -41.34375 24.484375 -41.34375 L 25.78125 -41.34375 C 27.394531 -41.34375 28.753906 -42.046875 29.859375 -43.453125 C 30.960938 -44.859375 31.515625 -46.796875 31.515625 -49.265625 C 31.515625 -50.804688 31.144531 -51.992188 30.40625 -52.828125 C 29.664062 -53.660156 28.660156 -54.078125 27.390625 -54.078125 Z M 25.984375 -54.078125 "/></g></g></g><g fill="#ffffff" fill-opacity="1"><g transform="translate(23.816196, 99.500622)"><g><path d="M 27.1875 0 C 26.382812 0 25.914062 -0.429688 25.78125 -1.296875 L 22.875 -26.59375 C 22.875 -26.863281 22.773438 -27 22.578125 -27 C 22.304688 -27 22.171875 -26.828125 22.171875 -26.484375 L 19.0625 -1.5 C 19 -1.03125 18.816406 -0.660156 18.515625 -0.390625 C 18.210938 -0.128906 17.859375 0 17.453125 0 L 2 0 C 1.601562 0 1.285156 -0.128906 1.046875 -0.390625 C 0.816406 -0.660156 0.734375 -1.03125 0.796875 -1.5 L 9.03125 -68.734375 C 9.09375 -69.203125 9.273438 -69.566406 9.578125 -69.828125 C 9.878906 -70.097656 10.234375 -70.234375 10.640625 -70.234375 L 32.609375 -70.234375 C 37.960938 -70.234375 42.191406 -68.523438 45.296875 -65.109375 C 48.410156 -61.703125 49.96875 -57.191406 49.96875 -51.578125 C 49.96875 -49.972656 49.898438 -48.734375 49.765625 -47.859375 C 49.296875 -44.179688 48.257812 -40.882812 46.65625 -37.96875 C 45.050781 -35.0625 42.976562 -32.707031 40.4375 -30.90625 C 40.101562 -30.707031 40.003906 -30.472656 40.140625 -30.203125 L 44.453125 -1.703125 L 44.453125 -1.296875 C 44.453125 -0.898438 44.316406 -0.582031 44.046875 -0.34375 C 43.785156 -0.113281 43.453125 0 43.046875 0 Z M 25.984375 -54.078125 C 25.648438 -54.078125 25.484375 -53.910156 25.484375 -53.578125 L 23.984375 -41.84375 C 23.984375 -41.507812 24.148438 -41.34375 24.484375 -41.34375 L 25.78125 -41.34375 C 27.394531 -41.34375 28.753906 -42.046875 29.859375 -43.453125 C 30.960938 -44.859375 31.515625 -46.796875 31.515625 -49.265625 C 31.515625 -50.804688 31.144531 -51.992188 30.40625 -52.828125 C 29.664062 -53.660156 28.660156 -54.078125 27.390625 -54.078125 Z M 25.984375 -54.078125 "/></g></g></g><g fill="#ffffff" fill-opacity="1"><g transform="translate(71.477643, 99.500622)"><g><path d="M 46.359375 -55.59375 C 46.296875 -55.125 46.113281 -54.753906 45.8125 -54.484375 C 45.507812 -54.210938 45.125 -54.078125 44.65625 -54.078125 L 25.984375 -54.078125 C 25.648438 -54.078125 25.484375 -53.910156 25.484375 -53.578125 L 24.28125 -43.75 C 24.144531 -43.414062 24.28125 -43.25 24.6875 -43.25 L 34.421875 -43.25 C 34.890625 -43.25 35.238281 -43.113281 35.46875 -42.84375 C 35.707031 -42.582031 35.789062 -42.21875 35.71875 -41.75 L 34.109375 -28.59375 C 33.910156 -27.59375 33.34375 -27.09375 32.40625 -27.09375 L 22.671875 -27.09375 C 22.335938 -27.09375 22.171875 -26.925781 22.171875 -26.59375 L 20.96875 -16.65625 C 20.832031 -16.320312 20.96875 -16.15625 21.375 -16.15625 L 40.03125 -16.15625 C 40.5 -16.15625 40.847656 -16.019531 41.078125 -15.75 C 41.316406 -15.488281 41.40625 -15.125 41.34375 -14.65625 L 39.734375 -1.5 C 39.671875 -1.03125 39.488281 -0.660156 39.1875 -0.390625 C 38.882812 -0.128906 38.5 0 38.03125 0 L 2 0 C 1.601562 0 1.285156 -0.128906 1.046875 -0.390625 C 0.816406 -0.660156 0.734375 -1.03125 0.796875 -1.5 L 9.03125 -68.734375 C 9.09375 -69.203125 9.273438 -69.566406 9.578125 -69.828125 C 9.878906 -70.097656 10.234375 -70.234375 10.640625 -70.234375 L 46.65625 -70.234375 C 47.125 -70.234375 47.472656 -70.097656 47.703125 -69.828125 C 47.941406 -69.566406 48.03125 -69.203125 47.96875 -68.734375 Z M 46.359375 -55.59375 "/></g></g></g><g fill="#ffffff" fill-opacity="1"><g transform="translate(114.724129, 99.500622)"><g><path d="M 21.171875 0.796875 C 15.285156 0.796875 10.648438 -0.753906 7.265625 -3.859375 C 3.890625 -6.972656 2.203125 -11.207031 2.203125 -16.5625 C 2.203125 -17.15625 2.269531 -18.191406 2.40625 -19.671875 L 6.21875 -50.671875 C 6.957031 -56.890625 9.5 -61.835938 13.84375 -65.515625 C 18.195312 -69.203125 23.582031 -71.046875 30 -71.046875 C 35.820312 -71.046875 40.453125 -69.472656 43.890625 -66.328125 C 47.335938 -63.179688 49.0625 -58.929688 49.0625 -53.578125 C 49.0625 -52.847656 49 -51.8125 48.875 -50.46875 L 48.46875 -47.15625 C 48.269531 -46.15625 47.703125 -45.65625 46.765625 -45.65625 L 31.40625 -45.65625 C 30.9375 -45.65625 30.582031 -45.785156 30.34375 -46.046875 C 30.113281 -46.316406 30.035156 -46.6875 30.109375 -47.15625 L 30.609375 -50.671875 C 30.742188 -51.941406 30.578125 -52.960938 30.109375 -53.734375 C 29.640625 -54.503906 28.96875 -54.890625 28.09375 -54.890625 C 27.15625 -54.890625 26.351562 -54.503906 25.6875 -53.734375 C 25.019531 -52.960938 24.617188 -51.941406 24.484375 -50.671875 L 20.671875 -19.5625 C 20.535156 -18.289062 20.703125 -17.269531 21.171875 -16.5 C 21.640625 -15.738281 22.304688 -15.359375 23.171875 -15.359375 C 24.109375 -15.359375 24.894531 -15.738281 25.53125 -16.5 C 26.164062 -17.269531 26.550781 -18.289062 26.6875 -19.5625 L 27.390625 -24.578125 C 27.390625 -24.910156 27.222656 -25.078125 26.890625 -25.078125 L 26.09375 -25.078125 C 25.625 -25.078125 25.269531 -25.210938 25.03125 -25.484375 C 24.800781 -25.753906 24.71875 -26.125 24.78125 -26.59375 L 26.1875 -38.125 C 26.257812 -38.59375 26.441406 -38.960938 26.734375 -39.234375 C 27.035156 -39.503906 27.390625 -39.640625 27.796875 -39.640625 L 46.0625 -39.640625 C 46.53125 -39.640625 46.878906 -39.503906 47.109375 -39.234375 C 47.347656 -38.960938 47.429688 -38.59375 47.359375 -38.125 L 45.046875 -19.671875 C 44.316406 -13.441406 41.757812 -8.472656 37.375 -4.765625 C 33 -1.054688 27.597656 0.796875 21.171875 0.796875 Z M 21.171875 0.796875 "/></g></g></g><g fill="#ffffff" fill-opacity="1"><g transform="translate(161.281839, 99.500622)"><g><path d="M 21.375 0.796875 C 15.625 0.796875 11.070312 -0.835938 7.71875 -4.109375 C 4.375 -7.390625 2.703125 -11.804688 2.703125 -17.359375 C 2.703125 -18.097656 2.769531 -19.269531 2.90625 -20.875 L 8.828125 -68.734375 C 8.898438 -69.203125 9.082031 -69.566406 9.375 -69.828125 C 9.675781 -70.097656 10.03125 -70.234375 10.4375 -70.234375 L 25.890625 -70.234375 C 26.285156 -70.234375 26.597656 -70.097656 26.828125 -69.828125 C 27.066406 -69.566406 27.15625 -69.203125 27.09375 -68.734375 L 21.078125 -19.0625 C 20.941406 -17.925781 21.070312 -17.023438 21.46875 -16.359375 C 21.875 -15.691406 22.507812 -15.359375 23.375 -15.359375 C 24.25 -15.359375 24.96875 -15.691406 25.53125 -16.359375 C 26.101562 -17.023438 26.457031 -17.925781 26.59375 -19.0625 L 32.71875 -68.734375 C 32.78125 -69.203125 32.941406 -69.566406 33.203125 -69.828125 C 33.472656 -70.097656 33.84375 -70.234375 34.3125 -70.234375 L 49.671875 -70.234375 C 50.140625 -70.234375 50.488281 -70.097656 50.71875 -69.828125 C 50.957031 -69.566406 51.039062 -69.203125 50.96875 -68.734375 L 45.046875 -20.875 C 44.515625 -16.59375 43.175781 -12.8125 41.03125 -9.53125 C 38.894531 -6.25 36.117188 -3.707031 32.703125 -1.90625 C 29.296875 -0.101562 25.519531 0.796875 21.375 0.796875 Z M 21.375 0.796875 "/></g></g></g><g fill="#ffffff" fill-opacity="1"><g transform="translate(208.140573, 99.500622)"><g><path d="M 2 0 C 1.601562 0 1.285156 -0.128906 1.046875 -0.390625 C 0.816406 -0.660156 0.734375 -1.03125 0.796875 -1.5 L 9.03125 -68.734375 C 9.09375 -69.203125 9.273438 -69.566406 9.578125 -69.828125 C 9.878906 -70.097656 10.234375 -70.234375 10.640625 -70.234375 L 26.09375 -70.234375 C 26.488281 -70.234375 26.800781 -70.097656 27.03125 -69.828125 C 27.269531 -69.566406 27.359375 -69.203125 27.296875 -68.734375 L 20.96875 -16.65625 C 20.832031 -16.320312 20.96875 -16.15625 21.375 -16.15625 L 40.4375 -16.15625 C 40.90625 -16.15625 41.253906 -16.019531 41.484375 -15.75 C 41.722656 -15.488281 41.8125 -15.125 41.75 -14.65625 L 40.140625 -1.5 C 39.941406 -0.5 39.375 0 38.4375 0 Z M 2 0 "/></g></g></g><g fill="#ffffff" fill-opacity="1"><g transform="translate(251.587741, 99.500622)"><g><path d="M 31.203125 0 C 30.265625 0 29.832031 -0.46875 29.90625 -1.40625 L 29.703125 -9.03125 C 29.765625 -9.164062 29.726562 -9.28125 29.59375 -9.375 C 29.46875 -9.476562 29.335938 -9.53125 29.203125 -9.53125 L 20.46875 -9.53125 C 20.132812 -9.53125 19.898438 -9.363281 19.765625 -9.03125 L 17.859375 -1.40625 C 17.660156 -0.46875 17.09375 0 16.15625 0 L 0.90625 0 C -0.101562 0 -0.472656 -0.535156 -0.203125 -1.609375 L 21.875 -68.9375 C 22.144531 -69.800781 22.75 -70.234375 23.6875 -70.234375 L 41.4375 -70.234375 C 42.375 -70.234375 42.878906 -69.800781 42.953125 -68.9375 L 48.46875 -1.609375 L 48.46875 -1.40625 C 48.46875 -0.46875 47.960938 0 46.953125 0 Z M 23.875 -24.484375 C 23.75 -24.148438 23.851562 -23.984375 24.1875 -23.984375 L 28.90625 -23.984375 C 29.101562 -23.984375 29.269531 -24.148438 29.40625 -24.484375 L 29 -43.046875 C 29 -43.316406 28.914062 -43.429688 28.75 -43.390625 C 28.582031 -43.359375 28.5 -43.242188 28.5 -43.046875 Z M 23.875 -24.484375 "/></g></g></g><g fill="#ffffff" fill-opacity="1"><g transform="translate(303.262784, 99.500622)"><g><path d="M 27.1875 0 C 26.382812 0 25.914062 -0.429688 25.78125 -1.296875 L 22.875 -26.59375 C 22.875 -26.863281 22.773438 -27 22.578125 -27 C 22.304688 -27 22.171875 -26.828125 22.171875 -26.484375 L 19.0625 -1.5 C 19 -1.03125 18.816406 -0.660156 18.515625 -0.390625 C 18.210938 -0.128906 17.859375 0 17.453125 0 L 2 0 C 1.601562 0 1.285156 -0.128906 1.046875 -0.390625 C 0.816406 -0.660156 0.734375 -1.03125 0.796875 -1.5 L 9.03125 -68.734375 C 9.09375 -69.203125 9.273438 -69.566406 9.578125 -69.828125 C 9.878906 -70.097656 10.234375 -70.234375 10.640625 -70.234375 L 32.609375 -70.234375 C 37.960938 -70.234375 42.191406 -68.523438 45.296875 -65.109375 C 48.410156 -61.703125 49.96875 -57.191406 49.96875 -51.578125 C 49.96875 -49.972656 49.898438 -48.734375 49.765625 -47.859375 C 49.296875 -44.179688 48.257812 -40.882812 46.65625 -37.96875 C 45.050781 -35.0625 42.976562 -32.707031 40.4375 -30.90625 C 40.101562 -30.707031 40.003906 -30.472656 40.140625 -30.203125 L 44.453125 -1.703125 L 44.453125 -1.296875 C 44.453125 -0.898438 44.316406 -0.582031 44.046875 -0.34375 C 43.785156 -0.113281 43.453125 0 43.046875 0 Z M 25.984375 -54.078125 C 25.648438 -54.078125 25.484375 -53.910156 25.484375 -53.578125 L 23.984375 -41.84375 C 23.984375 -41.507812 24.148438 -41.34375 24.484375 -41.34375 L 25.78125 -41.34375 C 27.394531 -41.34375 28.753906 -42.046875 29.859375 -43.453125 C 30.960938 -44.859375 31.515625 -46.796875 31.515625 -49.265625 C 31.515625 -50.804688 31.144531 -51.992188 30.40625 -52.828125 C 29.664062 -53.660156 28.660156 -54.078125 27.390625 -54.078125 Z M 25.984375 -54.078125 "/></g></g></g><g fill="#d32f23" fill-opacity="0.4196"><g transform="translate(16.25701, 181.617413)"><g><path d="M 2 0 C 1.601562 0 1.285156 -0.128906 1.046875 -0.390625 C 0.816406 -0.660156 0.734375 -1.03125 0.796875 -1.5 L 9.03125 -68.734375 C 9.09375 -69.203125 9.273438 -69.566406 9.578125 -69.828125 C 9.878906 -70.097656 10.234375 -70.234375 10.640625 -70.234375 L 29.796875 -70.234375 C 35.753906 -70.234375 40.488281 -68.675781 44 -65.5625 C 47.507812 -62.457031 49.265625 -58.296875 49.265625 -53.078125 C 49.265625 -52.472656 49.195312 -51.503906 49.0625 -50.171875 L 45.359375 -20.0625 C 44.890625 -16.125 43.566406 -12.628906 41.390625 -9.578125 C 39.210938 -6.535156 36.367188 -4.175781 32.859375 -2.5 C 29.347656 -0.832031 25.453125 0 21.171875 0 Z M 20.96875 -16.65625 C 20.832031 -16.320312 20.96875 -16.15625 21.375 -16.15625 L 22.78125 -16.25 C 23.851562 -16.320312 24.804688 -16.828125 25.640625 -17.765625 C 26.472656 -18.703125 27.023438 -19.90625 27.296875 -21.375 L 30.609375 -48.96875 L 30.703125 -50.078125 C 30.703125 -51.347656 30.398438 -52.332031 29.796875 -53.03125 C 29.203125 -53.726562 28.398438 -54.078125 27.390625 -54.078125 L 25.984375 -54.078125 C 25.648438 -54.078125 25.484375 -53.910156 25.484375 -53.578125 Z M 20.96875 -16.65625 "/></g></g></g><g fill="#d32f23" fill-opacity="0.4196"><g transform="translate(63.316411, 181.617413)"><g><path d="M 46.359375 -55.59375 C 46.296875 -55.125 46.113281 -54.753906 45.8125 -54.484375 C 45.507812 -54.210938 45.125 -54.078125 44.65625 -54.078125 L 25.984375 -54.078125 C 25.648438 -54.078125 25.484375 -53.910156 25.484375 -53.578125 L 24.28125 -43.75 C 24.144531 -43.414062 24.28125 -43.25 24.6875 -43.25 L 34.421875 -43.25 C 34.890625 -43.25 35.238281 -43.113281 35.46875 -42.84375 C 35.707031 -42.582031 35.789062 -42.21875 35.71875 -41.75 L 34.109375 -28.59375 C 33.910156 -27.59375 33.34375 -27.09375 32.40625 -27.09375 L 22.671875 -27.09375 C 22.335938 -27.09375 22.171875 -26.925781 22.171875 -26.59375 L 20.96875 -16.65625 C 20.832031 -16.320312 20.96875 -16.15625 21.375 -16.15625 L 40.03125 -16.15625 C 40.5 -16.15625 40.847656 -16.019531 41.078125 -15.75 C 41.316406 -15.488281 41.40625 -15.125 41.34375 -14.65625 L 39.734375 -1.5 C 39.671875 -1.03125 39.488281 -0.660156 39.1875 -0.390625 C 38.882812 -0.128906 38.5 0 38.03125 0 L 2 0 C 1.601562 0 1.285156 -0.128906 1.046875 -0.390625 C 0.816406 -0.660156 0.734375 -1.03125 0.796875 -1.5 L 9.03125 -68.734375 C 9.09375 -69.203125 9.273438 -69.566406 9.578125 -69.828125 C 9.878906 -70.097656 10.234375 -70.234375 10.640625 -70.234375 L 46.65625 -70.234375 C 47.125 -70.234375 47.472656 -70.097656 47.703125 -69.828125 C 47.941406 -69.566406 48.03125 -69.203125 47.96875 -68.734375 Z M 46.359375 -55.59375 "/></g></g></g><g fill="#d32f23" fill-opacity="0.4196"><g transform="translate(106.562897, 181.617413)"><g><path d="M 2 0 C 1.601562 0 1.285156 -0.128906 1.046875 -0.390625 C 0.816406 -0.660156 0.734375 -1.03125 0.796875 -1.5 L 9.03125 -68.734375 C 9.09375 -69.203125 9.273438 -69.566406 9.578125 -69.828125 C 9.878906 -70.097656 10.234375 -70.234375 10.640625 -70.234375 L 26.09375 -70.234375 C 26.488281 -70.234375 26.800781 -70.097656 27.03125 -69.828125 C 27.269531 -69.566406 27.359375 -69.203125 27.296875 -68.734375 L 20.96875 -16.65625 C 20.832031 -16.320312 20.96875 -16.15625 21.375 -16.15625 L 40.4375 -16.15625 C 40.90625 -16.15625 41.253906 -16.019531 41.484375 -15.75 C 41.722656 -15.488281 41.8125 -15.125 41.75 -14.65625 L 40.140625 -1.5 C 39.941406 -0.5 39.375 0 38.4375 0 Z M 2 0 "/></g></g></g><g fill="#d32f23" fill-opacity="0.4196"><g transform="translate(150.010065, 181.617413)"><g><path d="M 2 0 C 1.601562 0 1.285156 -0.128906 1.046875 -0.390625 C 0.816406 -0.660156 0.734375 -1.03125 0.796875 -1.5 L 9.03125 -68.734375 C 9.09375 -69.203125 9.273438 -69.566406 9.578125 -69.828125 C 9.878906 -70.097656 10.234375 -70.234375 10.640625 -70.234375 L 26.09375 -70.234375 C 26.488281 -70.234375 26.800781 -70.097656 27.03125 -69.828125 C 27.269531 -69.566406 27.359375 -69.203125 27.296875 -68.734375 L 19.0625 -1.5 C 19 -1.03125 18.816406 -0.660156 18.515625 -0.390625 C 18.210938 -0.128906 17.859375 0 17.453125 0 Z M 2 0 "/></g></g></g><g fill="#d32f23" fill-opacity="0.4196"><g transform="translate(173.389261, 181.617413)"><g><path d="M 14.75 0 C 13.8125 0 13.34375 -0.429688 13.34375 -1.296875 L 7.921875 -68.640625 C 7.921875 -69.703125 8.457031 -70.234375 9.53125 -70.234375 L 26.296875 -70.234375 C 27.222656 -70.234375 27.65625 -69.765625 27.59375 -68.828125 L 27.59375 -32.8125 C 27.53125 -32.613281 27.597656 -32.515625 27.796875 -32.515625 C 27.992188 -32.515625 28.128906 -32.613281 28.203125 -32.8125 L 36.625 -68.828125 C 36.820312 -69.765625 37.390625 -70.234375 38.328125 -70.234375 L 54.59375 -70.234375 C 55.0625 -70.234375 55.410156 -70.097656 55.640625 -69.828125 C 55.867188 -69.566406 55.882812 -69.171875 55.6875 -68.640625 L 33.609375 -1.296875 C 33.347656 -0.429688 32.75 0 31.8125 0 Z M 14.75 0 "/></g></g></g><g fill="#d32f23" fill-opacity="0.4196"><g transform="translate(224.06091, 181.617413)"><g><path d="M 46.359375 -55.59375 C 46.296875 -55.125 46.113281 -54.753906 45.8125 -54.484375 C 45.507812 -54.210938 45.125 -54.078125 44.65625 -54.078125 L 25.984375 -54.078125 C 25.648438 -54.078125 25.484375 -53.910156 25.484375 -53.578125 L 24.28125 -43.75 C 24.144531 -43.414062 24.28125 -43.25 24.6875 -43.25 L 34.421875 -43.25 C 34.890625 -43.25 35.238281 -43.113281 35.46875 -42.84375 C 35.707031 -42.582031 35.789062 -42.21875 35.71875 -41.75 L 34.109375 -28.59375 C 33.910156 -27.59375 33.34375 -27.09375 32.40625 -27.09375 L 22.671875 -27.09375 C 22.335938 -27.09375 22.171875 -26.925781 22.171875 -26.59375 L 20.96875 -16.65625 C 20.832031 -16.320312 20.96875 -16.15625 21.375 -16.15625 L 40.03125 -16.15625 C 40.5 -16.15625 40.847656 -16.019531 41.078125 -15.75 C 41.316406 -15.488281 41.40625 -15.125 41.34375 -14.65625 L 39.734375 -1.5 C 39.671875 -1.03125 39.488281 -0.660156 39.1875 -0.390625 C 38.882812 -0.128906 38.5 0 38.03125 0 L 2 0 C 1.601562 0 1.285156 -0.128906 1.046875 -0.390625 C 0.816406 -0.660156 0.734375 -1.03125 0.796875 -1.5 L 9.03125 -68.734375 C 9.09375 -69.203125 9.273438 -69.566406 9.578125 -69.828125 C 9.878906 -70.097656 10.234375 -70.234375 10.640625 -70.234375 L 46.65625 -70.234375 C 47.125 -70.234375 47.472656 -70.097656 47.703125 -69.828125 C 47.941406 -69.566406 48.03125 -69.203125 47.96875 -68.734375 Z M 46.359375 -55.59375 "/></g></g></g><g fill="#d32f23" fill-opacity="0.4196"><g transform="translate(267.307396, 181.617413)"><g><path d="M 27.1875 0 C 26.382812 0 25.914062 -0.429688 25.78125 -1.296875 L 22.875 -26.59375 C 22.875 -26.863281 22.773438 -27 22.578125 -27 C 22.304688 -27 22.171875 -26.828125 22.171875 -26.484375 L 19.0625 -1.5 C 19 -1.03125 18.816406 -0.660156 18.515625 -0.390625 C 18.210938 -0.128906 17.859375 0 17.453125 0 L 2 0 C 1.601562 0 1.285156 -0.128906 1.046875 -0.390625 C 0.816406 -0.660156 0.734375 -1.03125 0.796875 -1.5 L 9.03125 -68.734375 C 9.09375 -69.203125 9.273438 -69.566406 9.578125 -69.828125 C 9.878906 -70.097656 10.234375 -70.234375 10.640625 -70.234375 L 32.609375 -70.234375 C 37.960938 -70.234375 42.191406 -68.523438 45.296875 -65.109375 C 48.410156 -61.703125 49.96875 -57.191406 49.96875 -51.578125 C 49.96875 -49.972656 49.898438 -48.734375 49.765625 -47.859375 C 49.296875 -44.179688 48.257812 -40.882812 46.65625 -37.96875 C 45.050781 -35.0625 42.976562 -32.707031 40.4375 -30.90625 C 40.101562 -30.707031 40.003906 -30.472656 40.140625 -30.203125 L 44.453125 -1.703125 L 44.453125 -1.296875 C 44.453125 -0.898438 44.316406 -0.582031 44.046875 -0.34375 C 43.785156 -0.113281 43.453125 0 43.046875 0 Z M 25.984375 -54.078125 C 25.648438 -54.078125 25.484375 -53.910156 25.484375 -53.578125 L 23.984375 -41.84375 C 23.984375 -41.507812 24.148438 -41.34375 24.484375 -41.34375 L 25.78125 -41.34375 C 27.394531 -41.34375 28.753906 -42.046875 29.859375 -43.453125 C 30.960938 -44.859375 31.515625 -46.796875 31.515625 -49.265625 C 31.515625 -50.804688 31.144531 -51.992188 30.40625 -52.828125 C 29.664062 -53.660156 28.660156 -54.078125 27.390625 -54.078125 Z M 25.984375 -54.078125 "/></g></g></g><g fill="#d32f23" fill-opacity="0.4196"><g transform="translate(314.968843, 181.617413)"><g><path d="M 15.046875 -0.203125 C 14.578125 -0.203125 14.222656 -0.332031 13.984375 -0.59375 C 13.753906 -0.863281 13.675781 -1.234375 13.75 -1.703125 L 16.5625 -24.890625 C 16.625 -25.015625 16.625 -25.210938 16.5625 -25.484375 L 8.234375 -68.53125 L 8.234375 -68.9375 C 8.234375 -69.800781 8.703125 -70.234375 9.640625 -70.234375 L 25.78125 -70.234375 C 26.71875 -70.234375 27.222656 -69.800781 27.296875 -68.9375 L 28.5 -48.765625 C 28.5 -48.566406 28.582031 -48.46875 28.75 -48.46875 C 28.914062 -48.46875 29.03125 -48.566406 29.09375 -48.765625 L 35.21875 -68.9375 C 35.488281 -69.800781 36.09375 -70.234375 37.03125 -70.234375 L 53.1875 -70.234375 C 53.71875 -70.234375 54.066406 -70.082031 54.234375 -69.78125 C 54.398438 -69.488281 54.382812 -69.070312 54.1875 -68.53125 L 35.015625 -25.484375 L 34.921875 -24.890625 L 32.015625 -1.703125 C 31.941406 -1.234375 31.769531 -0.863281 31.5 -0.59375 C 31.238281 -0.332031 30.875 -0.203125 30.40625 -0.203125 Z M 15.046875 -0.203125 "/></g></g></g><g fill="#ff3847" fill-opacity="1"><g transform="translate(13.274075, 178.931566)"><g><path d="M 2 0 C 1.601562 0 1.285156 -0.128906 1.046875 -0.390625 C 0.816406 -0.660156 0.734375 -1.03125 0.796875 -1.5 L 9.03125 -68.734375 C 9.09375 -69.203125 9.273438 -69.566406 9.578125 -69.828125 C 9.878906 -70.097656 10.234375 -70.234375 10.640625 -70.234375 L 29.796875 -70.234375 C 35.753906 -70.234375 40.488281 -68.675781 44 -65.5625 C 47.507812 -62.457031 49.265625 -58.296875 49.265625 -53.078125 C 49.265625 -52.472656 49.195312 -51.503906 49.0625 -50.171875 L 45.359375 -20.0625 C 44.890625 -16.125 43.566406 -12.628906 41.390625 -9.578125 C 39.210938 -6.535156 36.367188 -4.175781 32.859375 -2.5 C 29.347656 -0.832031 25.453125 0 21.171875 0 Z M 20.96875 -16.65625 C 20.832031 -16.320312 20.96875 -16.15625 21.375 -16.15625 L 22.78125 -16.25 C 23.851562 -16.320312 24.804688 -16.828125 25.640625 -17.765625 C 26.472656 -18.703125 27.023438 -19.90625 27.296875 -21.375 L 30.609375 -48.96875 L 30.703125 -50.078125 C 30.703125 -51.347656 30.398438 -52.332031 29.796875 -53.03125 C 29.203125 -53.726562 28.398438 -54.078125 27.390625 -54.078125 L 25.984375 -54.078125 C 25.648438 -54.078125 25.484375 -53.910156 25.484375 -53.578125 Z M 20.96875 -16.65625 "/></g></g></g><g fill="#ff3847" fill-opacity="1"><g transform="translate(60.333476, 178.931566)"><g><path d="M 46.359375 -55.59375 C 46.296875 -55.125 46.113281 -54.753906 45.8125 -54.484375 C 45.507812 -54.210938 45.125 -54.078125 44.65625 -54.078125 L 25.984375 -54.078125 C 25.648438 -54.078125 25.484375 -53.910156 25.484375 -53.578125 L 24.28125 -43.75 C 24.144531 -43.414062 24.28125 -43.25 24.6875 -43.25 L 34.421875 -43.25 C 34.890625 -43.25 35.238281 -43.113281 35.46875 -42.84375 C 35.707031 -42.582031 35.789062 -42.21875 35.71875 -41.75 L 34.109375 -28.59375 C 33.910156 -27.59375 33.34375 -27.09375 32.40625 -27.09375 L 22.671875 -27.09375 C 22.335938 -27.09375 22.171875 -26.925781 22.171875 -26.59375 L 20.96875 -16.65625 C 20.832031 -16.320312 20.96875 -16.15625 21.375 -16.15625 L 40.03125 -16.15625 C 40.5 -16.15625 40.847656 -16.019531 41.078125 -15.75 C 41.316406 -15.488281 41.40625 -15.125 41.34375 -14.65625 L 39.734375 -1.5 C 39.671875 -1.03125 39.488281 -0.660156 39.1875 -0.390625 C 38.882812 -0.128906 38.5 0 38.03125 0 L 2 0 C 1.601562 0 1.285156 -0.128906 1.046875 -0.390625 C 0.816406 -0.660156 0.734375 -1.03125 0.796875 -1.5 L 9.03125 -68.734375 C 9.09375 -69.203125 9.273438 -69.566406 9.578125 -69.828125 C 9.878906 -70.097656 10.234375 -70.234375 10.640625 -70.234375 L 46.65625 -70.234375 C 47.125 -70.234375 47.472656 -70.097656 47.703125 -69.828125 C 47.941406 -69.566406 48.03125 -69.203125 47.96875 -68.734375 Z M 46.359375 -55.59375 "/></g></g></g><g fill="#ff3847" fill-opacity="1"><g transform="translate(103.579962, 178.931566)"><g><path d="M 2 0 C 1.601562 0 1.285156 -0.128906 1.046875 -0.390625 C 0.816406 -0.660156 0.734375 -1.03125 0.796875 -1.5 L 9.03125 -68.734375 C 9.09375 -69.203125 9.273438 -69.566406 9.578125 -69.828125 C 9.878906 -70.097656 10.234375 -70.234375 10.640625 -70.234375 L 26.09375 -70.234375 C 26.488281 -70.234375 26.800781 -70.097656 27.03125 -69.828125 C 27.269531 -69.566406 27.359375 -69.203125 27.296875 -68.734375 L 20.96875 -16.65625 C 20.832031 -16.320312 20.96875 -16.15625 21.375 -16.15625 L 40.4375 -16.15625 C 40.90625 -16.15625 41.253906 -16.019531 41.484375 -15.75 C 41.722656 -15.488281 41.8125 -15.125 41.75 -14.65625 L 40.140625 -1.5 C 39.941406 -0.5 39.375 0 38.4375 0 Z M 2 0 "/></g></g></g><g fill="#ff3847" fill-opacity="1"><g transform="translate(147.02713, 178.931566)"><g><path d="M 2 0 C 1.601562 0 1.285156 -0.128906 1.046875 -0.390625 C 0.816406 -0.660156 0.734375 -1.03125 0.796875 -1.5 L 9.03125 -68.734375 C 9.09375 -69.203125 9.273438 -69.566406 9.578125 -69.828125 C 9.878906 -70.097656 10.234375 -70.234375 10.640625 -70.234375 L 26.09375 -70.234375 C 26.488281 -70.234375 26.800781 -70.097656 27.03125 -69.828125 C 27.269531 -69.566406 27.359375 -69.203125 27.296875 -68.734375 L 19.0625 -1.5 C 19 -1.03125 18.816406 -0.660156 18.515625 -0.390625 C 18.210938 -0.128906 17.859375 0 17.453125 0 Z M 2 0 "/></g></g></g><g fill="#ff3847" fill-opacity="1"><g transform="translate(170.406326, 178.931566)"><g><path d="M 14.75 0 C 13.8125 0 13.34375 -0.429688 13.34375 -1.296875 L 7.921875 -68.640625 C 7.921875 -69.703125 8.457031 -70.234375 9.53125 -70.234375 L 26.296875 -70.234375 C 27.222656 -70.234375 27.65625 -69.765625 27.59375 -68.828125 L 27.59375 -32.8125 C 27.53125 -32.613281 27.597656 -32.515625 27.796875 -32.515625 C 27.992188 -32.515625 28.128906 -32.613281 28.203125 -32.8125 L 36.625 -68.828125 C 36.820312 -69.765625 37.390625 -70.234375 38.328125 -70.234375 L 54.59375 -70.234375 C 55.0625 -70.234375 55.410156 -70.097656 55.640625 -69.828125 C 55.867188 -69.566406 55.882812 -69.171875 55.6875 -68.640625 L 33.609375 -1.296875 C 33.347656 -0.429688 32.75 0 31.8125 0 Z M 14.75 0 "/></g></g></g><g fill="#ff3847" fill-opacity="1"><g transform="translate(221.077975, 178.931566)"><g><path d="M 46.359375 -55.59375 C 46.296875 -55.125 46.113281 -54.753906 45.8125 -54.484375 C 45.507812 -54.210938 45.125 -54.078125 44.65625 -54.078125 L 25.984375 -54.078125 C 25.648438 -54.078125 25.484375 -53.910156 25.484375 -53.578125 L 24.28125 -43.75 C 24.144531 -43.414062 24.28125 -43.25 24.6875 -43.25 L 34.421875 -43.25 C 34.890625 -43.25 35.238281 -43.113281 35.46875 -42.84375 C 35.707031 -42.582031 35.789062 -42.21875 35.71875 -41.75 L 34.109375 -28.59375 C 33.910156 -27.59375 33.34375 -27.09375 32.40625 -27.09375 L 22.671875 -27.09375 C 22.335938 -27.09375 22.171875 -26.925781 22.171875 -26.59375 L 20.96875 -16.65625 C 20.832031 -16.320312 20.96875 -16.15625 21.375 -16.15625 L 40.03125 -16.15625 C 40.5 -16.15625 40.847656 -16.019531 41.078125 -15.75 C 41.316406 -15.488281 41.40625 -15.125 41.34375 -14.65625 L 39.734375 -1.5 C 39.671875 -1.03125 39.488281 -0.660156 39.1875 -0.390625 C 38.882812 -0.128906 38.5 0 38.03125 0 L 2 0 C 1.601562 0 1.285156 -0.128906 1.046875 -0.390625 C 0.816406 -0.660156 0.734375 -1.03125 0.796875 -1.5 L 9.03125 -68.734375 C 9.09375 -69.203125 9.273438 -69.566406 9.578125 -69.828125 C 9.878906 -70.097656 10.234375 -70.234375 10.640625 -70.234375 L 46.65625 -70.234375 C 47.125 -70.234375 47.472656 -70.097656 47.703125 -69.828125 C 47.941406 -69.566406 48.03125 -69.203125 47.96875 -68.734375 Z M 46.359375 -55.59375 "/></g></g></g><g fill="#ff3847" fill-opacity="1"><g transform="translate(264.324461, 178.931566)"><g><path d="M 27.1875 0 C 26.382812 0 25.914062 -0.429688 25.78125 -1.296875 L 22.875 -26.59375 C 22.875 -26.863281 22.773438 -27 22.578125 -27 C 22.304688 -27 22.171875 -26.828125 22.171875 -26.484375 L 19.0625 -1.5 C 19 -1.03125 18.816406 -0.660156 18.515625 -0.390625 C 18.210938 -0.128906 17.859375 0 17.453125 0 L 2 0 C 1.601562 0 1.285156 -0.128906 1.046875 -0.390625 C 0.816406 -0.660156 0.734375 -1.03125 0.796875 -1.5 L 9.03125 -68.734375 C 9.09375 -69.203125 9.273438 -69.566406 9.578125 -69.828125 C 9.878906 -70.097656 10.234375 -70.234375 10.640625 -70.234375 L 32.609375 -70.234375 C 37.960938 -70.234375 42.191406 -68.523438 45.296875 -65.109375 C 48.410156 -61.703125 49.96875 -57.191406 49.96875 -51.578125 C 49.96875 -49.972656 49.898438 -48.734375 49.765625 -47.859375 C 49.296875 -44.179688 48.257812 -40.882812 46.65625 -37.96875 C 45.050781 -35.0625 42.976562 -32.707031 40.4375 -30.90625 C 40.101562 -30.707031 40.003906 -30.472656 40.140625 -30.203125 L 44.453125 -1.703125 L 44.453125 -1.296875 C 44.453125 -0.898438 44.316406 -0.582031 44.046875 -0.34375 C 43.785156 -0.113281 43.453125 0 43.046875 0 Z M 25.984375 -54.078125 C 25.648438 -54.078125 25.484375 -53.910156 25.484375 -53.578125 L 23.984375 -41.84375 C 23.984375 -41.507812 24.148438 -41.34375 24.484375 -41.34375 L 25.78125 -41.34375 C 27.394531 -41.34375 28.753906 -42.046875 29.859375 -43.453125 C 30.960938 -44.859375 31.515625 -46.796875 31.515625 -49.265625 C 31.515625 -50.804688 31.144531 -51.992188 30.40625 -52.828125 C 29.664062 -53.660156 28.660156 -54.078125 27.390625 -54.078125 Z M 25.984375 -54.078125 "/></g></g></g><g fill="#ff3847" fill-opacity="1"><g transform="translate(311.985908, 178.931566)"><g><path d="M 15.046875 -0.203125 C 14.578125 -0.203125 14.222656 -0.332031 13.984375 -0.59375 C 13.753906 -0.863281 13.675781 -1.234375 13.75 -1.703125 L 16.5625 -24.890625 C 16.625 -25.015625 16.625 -25.210938 16.5625 -25.484375 L 8.234375 -68.53125 L 8.234375 -68.9375 C 8.234375 -69.800781 8.703125 -70.234375 9.640625 -70.234375 L 25.78125 -70.234375 C 26.71875 -70.234375 27.222656 -69.800781 27.296875 -68.9375 L 28.5 -48.765625 C 28.5 -48.566406 28.582031 -48.46875 28.75 -48.46875 C 28.914062 -48.46875 29.03125 -48.566406 29.09375 -48.765625 L 35.21875 -68.9375 C 35.488281 -69.800781 36.09375 -70.234375 37.03125 -70.234375 L 53.1875 -70.234375 C 53.71875 -70.234375 54.066406 -70.082031 54.234375 -69.78125 C 54.398438 -69.488281 54.382812 -69.070312 54.1875 -68.53125 L 35.015625 -25.484375 L 34.921875 -24.890625 L 32.015625 -1.703125 C 31.941406 -1.234375 31.769531 -0.863281 31.5 -0.59375 C 31.238281 -0.332031 30.875 -0.203125 30.40625 -0.203125 Z M 15.046875 -0.203125 "/></g></g></g></svg>